<svg width="202" height="32" viewBox="0 0 202 32" fill="none" xmlns="http://www.w3.org/2000/svg">
<g clip-path="url(#clip0_678_15515)">
<path d="M61.812 23.9728L72.8816 8.58552H61.812V5.2085H77.8104V8.32679L66.7408 23.7208H78.0326V27.0979H61.8053V23.9796L61.812 23.9728Z" fill="#1E293B"/>
<path d="M80.7327 19.1455C80.7327 14.6179 83.8165 10.8459 88.779 10.8459C93.7415 10.8459 96.859 14.6179 96.859 19.1455C96.859 23.6732 93.8088 27.4791 88.779 27.4791C83.7492 27.4791 80.7327 23.7072 80.7327 19.1455ZM93.324 19.1455C93.324 16.354 91.7013 13.8962 88.779 13.8962C85.8567 13.8962 84.2677 16.354 84.2677 19.1455C84.2677 21.937 85.8904 24.4289 88.779 24.4289C91.6676 24.4289 93.324 21.9711 93.324 19.1455Z" fill="#1E293B"/>
<path d="M100.3 5.20169H103.707V27.0911H100.3V5.20169Z" fill="#1E293B"/>
<path d="M105.848 11.2408H109.484L114.063 23.1217L118.641 11.2408H122.311L115.914 27.0911H112.245L105.848 11.2408Z" fill="#1E293B"/>
<path d="M131.421 10.8459C136.128 10.8459 139.144 14.4885 139.144 19.4791V20.2962H127.038C127.3 22.6928 129.085 24.6604 132.034 24.6604C133.562 24.6604 135.374 24.034 136.478 22.9242L138.033 25.1915C136.478 26.703 134.168 27.4859 131.67 27.4859C126.964 27.4859 123.462 24.1702 123.462 19.1523C123.462 14.5566 126.775 10.8528 131.414 10.8528L131.421 10.8459ZM127.004 17.8655H135.832C135.764 15.9932 134.498 13.6647 131.414 13.6647C128.492 13.6647 127.166 15.9319 126.997 17.8655H127.004Z" fill="#1E293B"/>
<path d="M149.655 10.8459C152.705 10.8459 154.557 12.16 155.661 13.6715L153.419 15.7685C152.544 14.5225 151.345 13.8962 149.817 13.8962C146.962 13.8962 145.076 16.0613 145.076 19.1455C145.076 22.2298 146.962 24.4289 149.817 24.4289C151.345 24.4289 152.544 23.7753 153.419 22.5566L155.661 24.6536C154.557 26.1651 152.705 27.4791 149.655 27.4791C144.881 27.4791 141.541 23.9659 141.541 19.1455C141.541 14.3251 144.881 10.8459 149.655 10.8459Z" fill="#1E293B"/>
<path d="M168.219 25.3821C167.047 26.7302 165.236 27.4791 163.155 27.4791C160.59 27.4791 157.701 25.743 157.701 22.2298C157.701 18.7166 160.59 17.0757 163.155 17.0757C165.263 17.0757 167.081 17.7634 168.219 19.1115V16.7489C168.219 14.9106 166.724 13.794 164.549 13.794C162.799 13.794 161.27 14.4477 159.91 15.7957L158.516 13.3991C160.334 11.663 162.603 10.8391 165.101 10.8391C168.576 10.8391 171.626 12.3166 171.626 16.5787V27.0774H168.219V25.3685V25.3821ZM168.219 21.0859C167.438 20.0034 165.977 19.4451 164.489 19.4451C162.576 19.4451 161.149 20.5617 161.149 22.2979C161.149 24.034 162.576 25.1234 164.489 25.1234C165.983 25.1234 167.445 24.5651 168.219 23.4825V21.0859Z" fill="#1E293B"/>
<path d="M176.036 11.2408H179.443V13.5693C180.608 12.0578 182.494 10.88 184.54 10.88V14.291C184.251 14.223 183.894 14.1957 183.47 14.1957C182.042 14.1957 180.13 15.183 179.443 16.2927V27.091H176.036V11.2408Z" fill="#1E293B"/>
<path d="M194.277 10.8459C198.983 10.8459 202 14.4885 202 19.4791V20.2962H189.893C190.156 22.6928 191.94 24.6604 194.89 24.6604C196.418 24.6604 198.229 24.034 199.334 22.9242L200.889 25.1915C199.334 26.703 197.024 27.4859 194.526 27.4859C189.819 27.4859 186.318 24.1702 186.318 19.1523C186.318 14.5566 189.631 10.8528 194.27 10.8528L194.277 10.8459ZM189.86 17.8655H198.687C198.62 15.9932 197.354 13.6647 194.27 13.6647C191.348 13.6647 190.021 15.9319 189.853 17.8655H189.86Z" fill="#1E293B"/>
<path d="M47.1354 19.0162C47.1354 26.1787 41.4121 32 34.3758 32H5.1127C2.93783 32 1.0525 30.6587 0.31183 28.5753C-0.428836 26.4919 0.177164 24.2383 1.8403 22.8153L13.3947 13.0179C15.2262 11.4655 17.5357 10.6077 19.926 10.6077H26.2958C24.1276 11.2885 22.0942 12.3983 20.33 13.8962L5.1127 26.8051H34.3758C34.7865 26.8051 35.1972 26.7711 35.5878 26.7098C45.2299 26.7098 47.1287 19.0162 47.1287 19.0162H47.1354Z" fill="#0EA5E9"/>
<path d="M0.00209808 12.9838C0.00209808 5.82808 5.72543 0 12.7618 0H42.0248C44.1997 0 46.085 1.34128 46.8257 3.42468C47.5664 5.50809 46.9604 7.7617 45.2972 9.18468L33.7428 18.9821C31.9114 20.5345 29.6018 21.3923 27.2115 21.3923H20.8418C23.0099 20.7115 25.0434 19.6017 26.8075 18.1038L42.0248 5.19489H12.7618C12.351 5.19489 11.9403 5.22894 11.5498 5.29021C1.9009 5.29021 0.00209808 12.9838 0.00209808 12.9838Z" fill="#3B82F6"/>
</g>
<defs>
<clipPath id="clip0_678_15515">
<rect width="202" height="32" fill="white"/>
</clipPath>
</defs>
</svg>
