<svg width="157" height="208" viewBox="0 0 157 208" fill="none" xmlns="http://www.w3.org/2000/svg">
<g opacity="0.5" filter="url(#filter0_d_758_10571)">
<path d="M51.7 83.3L7.3 83C6.4 80.6 5.5 72.8 5.5 66.8C5.5 32 31.6 0.79999 78.4 0.79999C123.1 0.79999 150.7 29.9 150.7 64.7C150.7 89.9 137.2 110.6 112.3 125.3L75.4 147.2C69.7 150.8 64.9 154.7 62.2 160.4H152.2V200H4.3C4.3 164.3 14.5 134.9 50.2 114.2L82 95.6C97.3 86.6 103.3 78.5 103.3 65.6C103.3 53.3 94.6 42.5 77.2 42.5C58.9 42.5 49.9 55.1 49.9 71.3C49.9 75.2 50.5 79.4 51.7 83.3Z" fill="url(#paint0_linear_758_10571)"/>
</g>
<defs>
<filter id="filter0_d_758_10571" x="0.299988" y="0.800049" width="155.9" height="207.2" filterUnits="userSpaceOnUse" color-interpolation-filters="sRGB">
<feFlood flood-opacity="0" result="BackgroundImageFix"/>
<feColorMatrix in="SourceAlpha" type="matrix" values="0 0 0 0 0 0 0 0 0 0 0 0 0 0 0 0 0 0 127 0" result="hardAlpha"/>
<feOffset dy="4"/>
<feGaussianBlur stdDeviation="2"/>
<feComposite in2="hardAlpha" operator="out"/>
<feColorMatrix type="matrix" values="0 0 0 0 0 0 0 0 0 0 0 0 0 0 0 0 0 0 0.15 0"/>
<feBlend mode="normal" in2="BackgroundImageFix" result="effect1_dropShadow_758_10571"/>
<feBlend mode="normal" in="SourceGraphic" in2="effect1_dropShadow_758_10571" result="shape"/>
</filter>
<linearGradient id="paint0_linear_758_10571" x1="-30.2152" y1="91" x2="161" y2="91" gradientUnits="userSpaceOnUse">
<stop stop-color="#DFE9F3"/>
<stop offset="1" stop-color="white"/>
</linearGradient>
</defs>
</svg>
