<svg width="162" height="208" viewBox="0 0 162 208" fill="none" xmlns="http://www.w3.org/2000/svg">
<g opacity="0.5" filter="url(#filter0_d_758_10572)">
<path d="M64.7 110.4L44.3 79.2L92.3 39.9H11V0.299985H151.4V36.9L103.4 74.1C133.4 76.2 158 100.2 158 133.5C158 168 129.5 199.2 81.5 199.2C36.2 199.2 7.4 170.1 4.4 136.8L50 128.4C50.6 145.5 62.9 159 81.2 159C99.5 159 110.3 146.7 110.3 132.3C110.3 113.7 95.9 105.9 82.1 105.9C75.8 105.9 69.2 108 64.7 110.4Z" fill="url(#paint0_linear_758_10572)"/>
</g>
<defs>
<filter id="filter0_d_758_10572" x="0.399994" y="0.300049" width="161.6" height="206.9" filterUnits="userSpaceOnUse" color-interpolation-filters="sRGB">
<feFlood flood-opacity="0" result="BackgroundImageFix"/>
<feColorMatrix in="SourceAlpha" type="matrix" values="0 0 0 0 0 0 0 0 0 0 0 0 0 0 0 0 0 0 127 0" result="hardAlpha"/>
<feOffset dy="4"/>
<feGaussianBlur stdDeviation="2"/>
<feComposite in2="hardAlpha" operator="out"/>
<feColorMatrix type="matrix" values="0 0 0 0 0 0 0 0 0 0 0 0 0 0 0 0 0 0 0.15 0"/>
<feBlend mode="normal" in2="BackgroundImageFix" result="effect1_dropShadow_758_10572"/>
<feBlend mode="normal" in="SourceGraphic" in2="effect1_dropShadow_758_10572" result="shape"/>
</filter>
<linearGradient id="paint0_linear_758_10572" x1="-22" y1="86" x2="160" y2="86" gradientUnits="userSpaceOnUse">
<stop stop-color="#DFE9F3"/>
<stop offset="1" stop-color="white"/>
</linearGradient>
</defs>
</svg>
