<svg width="72" height="72" viewBox="0 0 72 72" fill="none" xmlns="http://www.w3.org/2000/svg">
<path d="M72 9.41571C72 7.24995 70.2381 5.48792 68.0723 5.48792H55.766C55.1835 5.48792 54.7113 5.95999 54.7113 6.5426C54.7113 7.12521 55.1835 7.59729 55.766 7.59729H68.0723C69.075 7.59729 69.8906 8.41306 69.8906 9.41571V14.2721H2.10938V9.41571C2.10938 8.41306 2.925 7.59729 3.92766 7.59729H50.8369C51.4194 7.59729 51.8916 7.12521 51.8916 6.5426C51.8916 5.95999 51.4194 5.48792 50.8369 5.48792H3.92766C1.76189 5.48792 0 7.24995 0 9.41571V46.511C0 48.6767 1.76189 50.4387 3.92766 50.4387H31.4733C32.0557 50.4387 32.528 49.9666 32.528 49.384V23.0942C32.528 22.6778 32.8667 22.3392 33.2831 22.3392H56.3119C56.9308 22.3392 57.5321 22.5937 57.9624 23.0385L61.791 26.985C62.2088 27.4163 62.4389 27.9848 62.4389 28.5857V44.8763C62.4369 44.8782 62.4345 44.8799 62.4326 44.882L59.7795 47.5352C59.7521 47.5331 59.7247 47.531 59.6967 47.531H35.2702C34.6877 47.531 34.2155 48.0031 34.2155 48.5857C34.2155 49.1683 34.6877 49.6404 35.2702 49.6404H57.6742L55.4818 51.833C55.4459 51.8293 55.4096 51.8274 55.3729 51.8274H35.2702C34.6877 51.8274 34.2155 52.2994 34.2155 52.8821C34.2155 53.4647 34.6877 53.9367 35.2702 53.9367H53.378L51.1913 56.1236H35.2702C34.6877 56.1236 34.2155 56.5957 34.2155 57.1783C34.2155 57.7609 34.6877 58.233 35.2702 58.233H49.9714L49.434 60.4198H35.2702C34.6877 60.4198 34.2155 60.8919 34.2155 61.4745C34.2155 62.0571 34.6877 62.5292 35.2702 62.5292H59.6967C60.2792 62.5292 60.7514 62.0571 60.7514 61.4745C60.7514 60.8919 60.2792 60.4198 59.6967 60.4198H55.7362L62.4389 53.7171V63.649C62.4389 64.0646 62.1008 64.4026 61.6852 64.4026H33.2831C32.8667 64.4026 32.528 64.0646 32.528 63.649V54.3216C32.528 53.739 32.0557 53.2669 31.4733 53.2669C30.8908 53.2669 30.4186 53.739 30.4186 54.3216V63.649C30.4186 65.2278 31.7036 66.512 33.2831 66.512H61.6852C63.264 66.512 64.5483 65.2277 64.5483 63.649V51.6077L65.7173 50.4387H68.0723C70.2381 50.4387 72 48.6768 72 46.511V9.41571ZM63.924 46.3738C64.1683 46.1049 64.8643 45.9005 65.3615 46.3737C65.7578 46.7699 65.7578 47.415 65.3615 47.8113L54.0271 59.1456C53.7519 59.4208 53.4066 59.6155 53.0284 59.7084L51.7006 60.0347L52.0269 58.7069C52.1198 58.3289 52.3145 57.9835 52.5898 57.7082L63.924 46.3738ZM69.8906 46.511C69.8906 47.5137 69.075 48.3293 68.0723 48.3293H67.511C68.0013 47.188 67.7838 45.8127 66.8533 44.882C66.3774 44.3996 65.439 43.9259 64.5483 43.9712V28.5856C64.5483 27.434 64.1071 26.3443 63.3057 25.5167L59.4775 21.5705C58.653 20.7183 57.4992 20.2296 56.312 20.2296H33.2831C31.7036 20.2296 30.4186 21.5147 30.4186 23.094V48.3292H3.92766C2.925 48.3292 2.10938 47.5136 2.10938 46.5109V16.382H69.8906V46.511Z" fill="#3B82F6"/>
<path d="M7.50206 9.88006C6.91959 9.88006 6.44737 10.3521 6.44737 10.9347C6.44737 11.5174 6.91959 11.9894 7.50206 11.9894H11.6543C12.2368 11.9894 12.709 11.5174 12.709 10.9347C12.709 10.3521 12.2368 9.88006 11.6543 9.88006H7.50206Z" fill="#3B82F6"/>
<path d="M38.8022 37.1176C39.3847 37.1176 39.8569 36.6455 39.8569 36.0629V27.6043H42.363C42.9455 27.6043 43.4177 27.1322 43.4177 26.5496C43.4177 25.967 42.9455 25.4949 42.363 25.4949H35.2702C34.6877 25.4949 34.2155 25.967 34.2155 26.5496C34.2155 27.1322 34.6877 27.6043 35.2702 27.6043H37.7475V36.0629C37.7475 36.6455 38.2198 37.1176 38.8022 37.1176Z" fill="#3B82F6"/>
<path d="M5.69137 35.266C5.50913 35.946 5.60264 36.6563 5.95477 37.2659L7.28522 39.5708C8.01197 40.8289 9.62691 41.2617 10.8858 40.5353L11.6551 40.0911C12.1285 40.4265 12.6297 40.7164 13.1549 40.9589V41.8455C13.1549 43.2987 14.3373 44.4811 15.7906 44.4811H18.4517C19.905 44.4811 21.0874 43.2987 21.0874 41.8455V40.9589C21.6125 40.7164 22.1137 40.4265 22.5872 40.0911L23.3565 40.5353C24.6151 41.2621 26.2304 40.8292 26.957 39.5706L28.2876 37.2659C28.6395 36.6563 28.7331 35.9459 28.551 35.266C28.3687 34.5859 27.9326 34.0175 27.3229 33.6655L26.5525 33.2207C26.5794 32.9307 26.593 32.6415 26.593 32.3554C26.593 32.0694 26.5794 31.7802 26.5525 31.4902L27.3229 31.0454C28.5815 30.3188 29.0143 28.7037 28.2876 27.4448L26.9571 25.1403C26.6051 24.5305 26.0367 24.0943 25.3567 23.9122C24.6766 23.7301 23.9664 23.8236 23.3567 24.1756L22.5873 24.6198C22.114 24.2844 21.6128 23.9944 21.0876 23.752V22.8654C21.0876 21.412 19.9052 20.2296 18.4518 20.2296H15.7908C14.3374 20.2296 13.155 21.412 13.155 22.8654V23.752C12.63 23.9944 12.1288 24.2844 11.6553 24.6198L10.8859 24.1756C9.62691 23.4487 8.01211 23.8817 7.28536 25.1403L5.95491 27.4448C5.2283 28.7034 5.661 30.3188 6.91959 31.0454L7.68994 31.4902C7.66308 31.7802 7.64944 32.0694 7.64944 32.3554C7.64944 32.6415 7.66308 32.9307 7.68994 33.2207L6.91959 33.6655C6.3097 34.0175 5.87362 34.5859 5.69137 35.266ZM9.86639 33.6045C9.79481 33.1858 9.75853 32.7655 9.75853 32.3554C9.75853 31.9454 9.79481 31.5251 9.86639 31.1064C9.94078 30.6713 9.73645 30.2361 9.35409 30.0153L7.974 29.2185C7.7227 29.0734 7.63622 28.7508 7.78134 28.4995L9.1118 26.1949C9.25678 25.9437 9.57952 25.8574 9.83081 26.0023L11.2105 26.7988C11.5934 27.0199 12.0732 26.9787 12.4128 26.6959C13.0611 26.156 13.7883 25.7352 14.5744 25.4454C14.9888 25.2926 15.2641 24.8975 15.2641 24.4558V22.8654C15.2641 22.5751 15.5002 22.339 15.7905 22.339H18.4515C18.7418 22.339 18.9779 22.5751 18.9779 22.8654V24.4558C18.9779 24.8977 19.2532 25.2926 19.6677 25.4454C20.4536 25.7352 21.1809 26.156 21.8292 26.6959C22.1688 26.9788 22.6486 27.02 23.0316 26.7988L24.4112 26.0023C24.5755 25.9075 24.732 25.929 24.8106 25.9497C24.8892 25.9708 25.0353 26.0306 25.1301 26.1949L26.4606 28.4995C26.6057 28.7508 26.5193 29.0734 26.2679 29.2185L24.888 30.0153C24.5057 30.2359 24.3014 30.6712 24.3757 31.1063C24.4472 31.5252 24.4835 31.9454 24.4835 32.3554C24.4835 32.7655 24.4472 33.1857 24.3757 33.6046C24.3014 34.0397 24.5057 34.4748 24.888 34.6956L26.2679 35.4924C26.4322 35.5873 26.4921 35.7333 26.5132 35.8119C26.5341 35.8906 26.5553 36.047 26.4606 36.2112L25.13 38.5159C24.9848 38.7671 24.6624 38.8534 24.411 38.7086L23.0313 37.9121C22.6484 37.691 22.1685 37.7321 21.8289 38.015C21.1807 38.5549 20.4535 38.9757 19.6674 39.2655C19.253 39.4183 18.9776 39.8134 18.9776 40.2551V41.8455C18.9776 42.1356 18.7415 42.3717 18.4513 42.3717H15.7902C15.5 42.3717 15.2639 42.1356 15.2639 41.8455V40.2551C15.2639 39.8132 14.9885 39.4183 14.5741 39.2655C13.7881 38.9757 13.0608 38.5549 12.4125 38.015C12.2185 37.8535 11.9787 37.7708 11.7374 37.7708C11.5563 37.7708 11.3743 37.8173 11.2102 37.9121L9.83053 38.7086C9.57923 38.8534 9.25664 38.7672 9.11152 38.5159L7.78106 36.2111C7.68628 36.047 7.70738 35.8906 7.72847 35.8119C7.74956 35.7331 7.80947 35.5872 7.97372 35.4924L9.35381 34.6956C9.73645 34.4748 9.94078 34.0396 9.86639 33.6045Z" fill="#3B82F6"/>
<path d="M17.1211 37.1367C19.7575 37.1367 21.9023 34.9919 21.9023 32.3554C21.9023 29.719 19.7575 27.5742 17.1211 27.5742C14.4847 27.5742 12.3398 29.719 12.3398 32.3554C12.3398 34.9919 14.4847 37.1367 17.1211 37.1367ZM17.1211 29.6836C18.5944 29.6836 19.793 30.8821 19.793 32.3554C19.793 33.8288 18.5944 35.0273 17.1211 35.0273C15.6478 35.0273 14.4492 33.8288 14.4492 32.3554C14.4492 30.8821 15.6478 29.6836 17.1211 29.6836Z" fill="#3B82F6"/>
<path d="M51.936 36.7517C52.5185 36.7517 52.9907 36.2796 52.9907 35.697C52.9907 35.1144 52.5185 34.6423 51.936 34.6423H46.1706C45.5881 34.6423 45.1159 35.1144 45.1159 35.697C45.1159 36.2796 45.5881 36.7517 46.1706 36.7517H51.936Z" fill="#3B82F6"/>
<path d="M35.2702 41.0479H59.6967C60.2792 41.0479 60.7514 40.5758 60.7514 39.9932C60.7514 39.4106 60.2792 38.9385 59.6967 38.9385H35.2702C34.6877 38.9385 34.2155 39.4106 34.2155 39.9932C34.2155 40.5758 34.6877 41.0479 35.2702 41.0479Z" fill="#3B82F6"/>
<path d="M35.2702 45.3441H59.6967C60.2792 45.3441 60.7514 44.8721 60.7514 44.2895C60.7514 43.7068 60.2792 43.2348 59.6967 43.2348H35.2702C34.6877 43.2348 34.2155 43.7068 34.2155 44.2895C34.2155 44.8721 34.6877 45.3441 35.2702 45.3441Z" fill="#3B82F6"/>
<path d="M60.4744 11.9897C61.0569 11.9897 61.5291 11.5175 61.5291 10.935C61.5291 10.3525 61.0569 9.88034 60.4744 9.88034C59.8919 9.88034 59.4197 10.3525 59.4197 10.935C59.4197 11.5175 59.8919 11.9897 60.4744 11.9897Z" fill="#3B82F6"/>
<path d="M64.4977 11.9897C65.0801 11.9897 65.5523 11.5175 65.5523 10.935C65.5523 10.3525 65.0801 9.88034 64.4977 9.88034C63.9152 9.88034 63.443 10.3525 63.443 10.935C63.443 11.5175 63.9152 11.9897 64.4977 11.9897Z" fill="#3B82F6"/>
</svg>
