<svg width="72" height="72" viewBox="0 0 72 72" fill="none" xmlns="http://www.w3.org/2000/svg">
<path d="M67.2891 4.5H4.71094C2.11331 4.5 0 6.61331 0 9.21094V49.6948C0 50.2772 0.472219 50.7495 1.05469 50.7495C1.63716 50.7495 2.10938 50.2772 2.10938 49.6948V17.8594H69.8906V56.7422C69.8906 58.1767 68.7236 59.3438 67.2891 59.3438H64.8984V26.5078C64.8984 24.3754 63.1635 22.6406 61.0312 22.6406H57.8907C56.4903 22.6887 56.5014 24.707 57.8907 24.75H61.0312C62.0006 24.75 62.7891 25.5385 62.7891 26.5078V63.6328C62.7891 64.6021 62.0006 65.3906 61.0312 65.3906H33.4688C32.4994 65.3906 31.7109 64.6021 31.7109 63.6328V26.5078C31.7109 25.5385 32.4994 24.75 33.4688 24.75H52.9868C54.3766 24.7116 54.3832 22.6822 52.9868 22.6406H33.4688C31.3363 22.6406 29.6016 24.3754 29.6016 26.5078V59.3438H4.71094C3.27642 59.3438 2.10938 58.1767 2.10938 56.7422V54.714C2.06845 53.3223 0.0426094 53.3184 0 54.714V56.7422C0 59.3398 2.11331 61.4531 4.71094 61.4531H29.6016V63.6328C29.6016 65.7653 31.3363 67.5 33.4688 67.5H61.0312C63.1635 67.5 64.8984 65.7653 64.8984 63.6328V61.4531H67.2891C69.8867 61.4531 72 59.3398 72 56.7422V9.21094C72 6.61331 69.8867 4.5 67.2891 4.5ZM2.10938 15.75V9.21094C2.10938 7.77642 3.27642 6.60938 4.71094 6.60938H67.2891C68.7236 6.60938 69.8906 7.77642 69.8906 9.21094V15.75H2.10938Z" fill="#3B82F6"/>
<path d="M10.4387 7.82888C8.61652 7.82888 7.13405 9.31134 7.13405 11.1336C7.30012 15.5116 13.5779 15.5105 13.7434 11.1336C13.7434 9.31134 12.261 7.82888 10.4387 7.82888ZM10.4387 12.3289C9.77963 12.3289 9.24342 11.7927 9.24342 11.1336C9.29953 9.55153 11.5782 9.55195 11.634 11.1336C11.634 11.7927 11.0978 12.3289 10.4387 12.3289Z" fill="#3B82F6"/>
<path d="M18.6886 7.82888C16.8664 7.82888 15.384 9.31134 15.384 11.1336C15.55 15.5116 21.8278 15.5105 21.9933 11.1336C21.9933 9.31134 20.5109 7.82888 18.6886 7.82888ZM18.6886 12.3289C18.0295 12.3289 17.4933 11.7927 17.4933 11.1336C17.5494 9.55153 19.8281 9.55195 19.884 11.1336C19.884 11.7927 19.3477 12.3289 18.6886 12.3289Z" fill="#3B82F6"/>
<path d="M26.9387 7.82888C25.1165 7.82888 23.634 9.31134 23.634 11.1336C23.8001 15.5116 30.0779 15.5105 30.2434 11.1336C30.2434 9.31134 28.7609 7.82888 26.9387 7.82888ZM26.9387 12.3289C26.2796 12.3289 25.7434 11.7927 25.7434 11.1336C25.7995 9.55153 28.0782 9.55195 28.134 11.1336C28.134 11.7927 27.5978 12.3289 26.9387 12.3289Z" fill="#3B82F6"/>
<path d="M7.73438 28.6875H14.7258C16.118 28.6453 16.1214 26.6214 14.7258 26.5781H7.73438C7.15191 26.5781 6.67969 27.0503 6.67969 27.6328C6.67969 28.2153 7.15191 28.6875 7.73438 28.6875Z" fill="#3B82F6"/>
<path d="M7.73437 34.0312H22.6406C24.0303 33.99 24.0383 31.9657 22.6406 31.9219H7.73437C6.34472 31.9631 6.3367 33.9874 7.73437 34.0312Z" fill="#3B82F6"/>
<path d="M7.73437 39.375H22.6406C24.0303 39.3338 24.0383 37.3095 22.6406 37.2656H7.73437C6.34472 37.3068 6.3367 39.3311 7.73437 39.375Z" fill="#3B82F6"/>
<path d="M7.73437 44.7188H22.6406C24.0303 44.6775 24.0383 42.6533 22.6406 42.6094H7.73437C6.34472 42.6506 6.3367 44.6749 7.73437 44.7188Z" fill="#3B82F6"/>
<path d="M37.2656 31.6406H46.6315C48.023 31.5987 48.0277 29.5747 46.6315 29.5312H37.2658C35.8741 29.5732 35.8695 31.5972 37.2656 31.6406Z" fill="#3B82F6"/>
<path d="M57.2344 34.875H37.2656C36.683 34.875 36.2109 35.3472 36.2109 35.9297C36.2109 36.5122 36.683 36.9844 37.2656 36.9844H57.2344C58.6225 36.944 58.6335 34.9193 57.2344 34.875Z" fill="#3B82F6"/>
<path d="M58.2891 41.2734C58.2891 40.691 57.817 40.2188 57.2344 40.2188H37.2656C36.683 40.2188 36.2109 40.691 36.2109 41.2734C36.2109 41.8559 36.683 42.3281 37.2656 42.3281H57.2344C57.817 42.3281 58.2891 41.8559 58.2891 41.2734Z" fill="#3B82F6"/>
<path d="M46.7605 46.6172C46.7605 46.0347 46.2884 45.5625 45.7058 45.5625H37.2656C36.683 45.5625 36.2109 46.0347 36.2109 46.6172C36.2109 47.1997 36.683 47.6719 37.2656 47.6719H45.7058C46.2883 47.6719 46.7605 47.1997 46.7605 46.6172Z" fill="#3B82F6"/>
<path d="M42.4687 61.5037H52.0312C56.5931 61.3318 56.5968 54.7865 52.0312 54.6131H42.4687C37.9069 54.7851 37.9032 61.3304 42.4687 61.5037ZM42.4687 56.7225H52.0312C53.7967 56.7841 53.8013 59.3311 52.0312 59.3944H42.4687C41.7322 59.3944 41.1328 58.795 41.1328 58.0584C41.1328 57.3218 41.7322 56.7225 42.4687 56.7225Z" fill="#3B82F6"/>
</svg>
