<svg width="72" height="72" viewBox="0 0 72 72" fill="none" xmlns="http://www.w3.org/2000/svg">
<g clip-path="url(#clip0_758_10506)">
<path d="M20.8184 33.289H26.8594C27.442 33.289 27.9141 32.8168 27.9141 32.2343C27.9141 31.6518 27.442 31.1796 26.8594 31.1796H20.8184C20.2358 31.1796 19.7637 31.6518 19.7637 32.2343C19.7637 32.8168 20.2358 33.289 20.8184 33.289Z" fill="#3B82F6"/>
<path d="M20.8184 38.4004H45.3532C45.9358 38.4004 46.4079 37.9282 46.4079 37.3458C46.4079 36.7633 45.9358 36.2911 45.3532 36.2911H20.8184C20.2358 36.2911 19.7637 36.7633 19.7637 37.3458C19.7637 37.9282 20.2358 38.4004 20.8184 38.4004Z" fill="#3B82F6"/>
<path d="M45.3532 41.4024H38.8125C38.2299 41.4024 37.7578 41.8746 37.7578 42.457C37.7578 43.0395 38.2299 43.5117 38.8125 43.5117H45.3532C45.9358 43.5117 46.4079 43.0395 46.4079 42.457C46.4079 41.8746 45.9357 41.4024 45.3532 41.4024Z" fill="#3B82F6"/>
<path d="M69.0293 7.081L55.3777 0.258293C54.6888 -0.0860977 53.8663 -0.0860977 53.1773 0.258293L39.5255 7.081C38.6862 7.50048 38.1646 8.34395 38.1646 9.28234V11.245H23.3437C22.7611 11.245 22.2891 11.7173 22.2891 12.2997C22.2891 12.8822 22.7611 13.3544 23.3437 13.3544H38.1648V16.5619C38.1648 18.1004 38.2801 19.5629 38.5108 20.9567H20.8184C20.2358 20.9567 19.7637 21.429 19.7637 22.0114C19.7637 22.5939 20.2358 23.0661 20.8184 23.0661H38.9623C39.2387 24.1068 39.5883 25.1062 40.0106 26.0682H20.8184C20.2358 26.0682 19.7637 26.5404 19.7637 27.1229C19.7637 27.7053 20.2358 28.1776 20.8184 28.1776H41.0889C41.4593 28.8071 41.865 29.4196 42.3072 30.0158C42.5983 30.4084 42.9059 30.7959 43.2315 31.1796H31.0781C30.4955 31.1796 30.0234 31.6518 30.0234 32.2343C30.0234 32.8168 30.4955 33.289 31.0781 33.289H45.2435C47.232 35.1603 49.7452 37.0026 52.9904 38.9885C53.3873 39.2314 53.8322 39.3528 54.2773 39.3528C54.7224 39.3528 55.1673 39.2314 55.5643 38.9885C55.6722 38.9226 55.7779 38.8569 55.8841 38.7914V64.404H28.2892V62.4375C28.2892 61.855 27.8172 61.3828 27.2346 61.3828C26.6519 61.3828 26.1799 61.855 26.1799 62.4375V69.539C26.1799 69.7328 26.0222 69.8906 25.8283 69.8906H4.0708C3.87688 69.8906 3.71924 69.7328 3.71924 69.539V54.3477C3.71924 54.154 3.87688 53.9962 4.0708 53.9962H25.8283C26.0222 53.9962 26.1799 54.154 26.1799 54.3477V57.5156C26.1799 58.0981 26.6519 58.5703 27.2346 58.5703C27.8172 58.5703 28.2892 58.0981 28.2892 57.5156V54.3477C28.2892 54.1358 28.2594 53.9311 28.2088 53.7348H45.3532C45.9358 53.7348 46.4079 53.2625 46.4079 52.6801C46.4079 52.0976 45.9358 51.6254 45.3532 51.6254H24.9002V48.6233H45.3531C45.9357 48.6233 46.4078 48.1511 46.4078 47.5686C46.4078 46.9862 45.9357 46.5139 45.3531 46.5139H24.856C24.7586 45.4571 24.496 44.4477 24.093 43.5119H35.0156C35.5982 43.5119 36.0703 43.0397 36.0703 42.4572C36.0703 41.8747 35.5982 41.4025 35.0156 41.4025H22.8562C21.0364 39.0227 18.1699 37.4837 14.9496 37.4837C13.2656 37.4837 11.6789 37.9056 10.2871 38.6471V13.3544H18.4219C19.0045 13.3544 19.4766 12.8822 19.4766 12.2997C19.4766 11.7173 19.0045 11.245 18.4219 11.245H9.93557C8.96624 11.245 8.17775 12.0335 8.17775 13.0029V40.1525C6.22405 41.9705 4.99893 44.5615 4.99893 47.4343V51.8867H4.0708C2.71391 51.8867 1.60986 52.9907 1.60986 54.3476V69.539C1.60986 70.8959 2.71391 72 4.0708 72H25.8283C27.1852 72 28.2892 70.8959 28.2892 69.539V66.5132H56.2358C57.2051 66.5132 57.9936 65.7247 57.9936 64.7554V37.4365C61.7477 34.9242 64.3469 32.5791 66.2476 30.0158C69.0349 26.2569 70.39 21.856 70.39 16.5621V9.28234C70.3901 8.34409 69.8687 7.50062 69.0293 7.081ZM18.5722 51.8868H11.3271V47.4345C11.3271 45.4369 12.9523 43.8118 14.9497 43.8118C16.9471 43.8118 18.5723 45.4369 18.5723 47.4345L18.5722 51.8868ZM7.1083 47.4345C7.1083 43.1107 10.626 39.5931 14.9497 39.5931C19.2733 39.5931 22.7909 43.1107 22.7909 47.4345V51.8868H20.6817V47.4345C20.6817 44.2738 18.1104 41.7025 14.9497 41.7025C11.789 41.7025 9.21768 44.2738 9.21768 47.4345V51.8868H7.1083V47.4345ZM68.2807 16.5621C68.2807 26.6978 62.9938 31.9692 54.4635 37.1892C54.3501 37.2586 54.2042 37.2584 54.0914 37.1892C45.5609 31.9691 40.274 26.6978 40.274 16.5621V9.28234C40.274 9.14818 40.3485 9.02767 40.4685 8.96776L54.1202 2.14492C54.2185 2.0957 54.3359 2.0957 54.4345 2.14492L68.0861 8.96762C68.2061 9.02753 68.2806 9.14804 68.2806 9.2822L68.2807 16.5621Z" fill="#3B82F6"/>
<path d="M54.214 7.33075C48.3289 7.33075 43.5411 12.1186 43.5411 18.0036C43.5411 23.8886 48.329 28.6765 54.214 28.6765C58.7164 28.6765 62.757 25.8274 64.2684 21.5869C64.464 21.0383 64.1777 20.4349 63.6291 20.2393C63.0806 20.0437 62.4771 20.33 62.2815 20.8786C61.0686 24.281 57.8265 26.567 54.214 26.567C49.4921 26.567 45.6505 22.7254 45.6505 18.0035C45.6505 13.2816 49.4921 9.43998 54.214 9.43998C58.3715 9.43998 61.9162 12.4073 62.6424 16.4954C62.7443 17.0689 63.2921 17.4518 63.8653 17.3494C64.4387 17.2476 64.8211 16.7 64.7193 16.1266C63.8139 11.0299 59.3959 7.33075 54.214 7.33075Z" fill="#3B82F6"/>
<path d="M57.8724 15.1174L53.7168 19.273L51.3004 16.8565C50.8885 16.4447 50.2208 16.4445 49.8088 16.8565C49.3969 17.2684 49.3969 17.9363 49.8088 18.348L52.9709 21.5103C53.1688 21.7081 53.4369 21.8192 53.7168 21.8192C53.9966 21.8192 54.2646 21.7081 54.4626 21.5103L59.364 16.6089C59.7759 16.197 59.7759 15.5292 59.364 15.1174C58.9521 14.7057 58.2844 14.7057 57.8724 15.1174Z" fill="#3B82F6"/>
</g>
<defs>
<clipPath id="clip0_758_10506">
<rect width="72" height="72" fill="white"/>
</clipPath>
</defs>
</svg>
