<svg width="72" height="72" viewBox="0 0 72 72" fill="none" xmlns="http://www.w3.org/2000/svg">
<g clip-path="url(#clip0_758_10481)">
<path d="M44.8678 20.153C44.8678 18.5306 44.425 16.9429 43.5871 15.5617C43.2851 15.0638 42.6364 14.9048 42.1384 15.207C41.6403 15.5091 41.4816 16.1578 41.7836 16.6558C44.524 21.0506 41.1862 26.9785 36 26.9115C32.2734 26.9115 29.2417 23.8798 29.2417 20.1531C29.1703 15.416 34.2553 12.0292 38.5951 13.911C39.1327 14.1351 39.7502 13.8814 39.9745 13.3436C40.1988 12.8062 39.9447 12.1885 39.4071 11.9642C33.7116 9.49303 27.0387 13.9361 27.1323 20.1531C27.5775 31.9001 44.4234 31.8991 44.8678 20.153Z" fill="#3B82F6"/>
<path d="M69.6192 50.0034H62.0563V45.1548C62.0563 44.5722 61.584 44.1001 61.0016 44.1001H37.0547V40.3066H37.8605C38.9384 40.3066 39.8703 39.5025 40.0281 38.4363L40.5793 34.7106C41.4316 34.4419 42.2594 34.098 43.0528 33.6828L46.0797 35.9295C46.9451 36.5718 48.1726 36.4816 48.935 35.7195L51.5659 33.0885C52.3281 32.3262 52.4184 31.0988 51.776 30.2331L49.5294 27.2062C49.9444 26.4128 50.2883 25.585 50.5571 24.7327L54.2828 24.1812C55.3492 24.0235 56.1533 23.0918 56.1533 22.0137V18.2928C56.1533 17.215 55.3493 16.2832 54.2831 16.1253L50.5572 15.5739C50.2885 14.7216 49.9445 13.8937 49.5295 13.1005L51.7762 10.0734C52.4185 9.20798 52.3282 7.98047 51.5661 7.21814L48.9351 4.58705C48.1731 3.825 46.9455 3.73458 46.0799 4.37709L43.0528 6.62372C42.2595 6.20873 41.4319 5.86491 40.5793 5.59603L40.0281 1.87031C39.8701 0.804094 38.9384 0 37.8605 0H34.1395C33.0616 0 32.1297 0.804094 31.9719 1.87045L31.4207 5.59617C30.5682 5.86491 29.7405 6.20873 28.9472 6.62386L25.9201 4.37723C25.0546 3.73486 23.8269 3.82514 23.0649 4.58719L20.4339 7.21828C19.6717 7.98061 19.5815 9.20798 20.2238 10.0735L22.4705 13.1006C22.0555 13.8939 21.7115 14.7218 21.4428 15.5741L17.7169 16.1255C16.6507 16.2834 15.8468 17.2152 15.8468 18.2929V22.0139C15.8468 23.0919 16.6508 24.0237 17.7171 24.1813L21.4429 24.7328C21.7117 25.5852 22.0556 26.4129 22.4706 27.2063L20.224 30.2332C19.5816 31.0988 19.6719 32.3263 20.4341 33.0886L23.065 35.7196C23.8272 36.4816 25.0547 36.5721 25.9203 35.9297L28.9474 33.6829C29.7408 34.098 30.5685 34.4419 31.4208 34.7108L31.9721 38.4365C32.1299 39.5027 33.0618 40.3068 34.1397 40.3068H34.9455V44.1003H10.9984C10.416 44.1003 9.94373 44.5724 9.94373 45.155V50.0036H2.38078C1.06805 50.0034 0 51.0715 0 52.3842V69.6192C0 70.932 1.06805 72 2.38078 72H19.6158C20.9285 72 21.9966 70.932 21.9966 69.6192V66.7969C21.9482 65.4003 19.9351 65.4015 19.8872 66.7969V69.6192C19.8872 69.7688 19.7654 69.8906 19.6158 69.8906H2.38078C2.23116 69.8906 2.10938 69.769 2.10938 69.6192V52.3842C2.10938 52.2346 2.23116 52.1128 2.38078 52.1128H7.45791V56.4483C7.45791 57.0829 7.80553 57.6633 8.36522 57.9627C8.9235 58.2616 9.59963 58.23 10.1282 57.8775L10.9986 57.2972L11.8688 57.8775C12.3967 58.2296 13.0724 58.2623 13.632 57.9627C14.1916 57.6633 14.5392 57.0829 14.5392 56.4483V52.1128H19.6159C19.7655 52.1128 19.8873 52.2345 19.8873 52.3842V61.875C19.9357 63.2715 21.9488 63.2704 21.9967 61.875V52.3842C21.9967 51.0715 20.9287 50.0034 19.6159 50.0034H12.0531V46.2095H34.9453V50.003H27.3821C26.0695 50.003 25.0016 51.0709 25.0016 52.3837V69.6195C25.0016 70.9321 26.0695 72 27.3821 72H44.6179C45.9305 72 46.9984 70.9321 46.9984 69.6195V52.3837C46.9984 51.0709 45.9305 50.003 44.6179 50.003H37.0547V46.2095H59.9469V50.0034H52.3842C51.0715 50.0034 50.0034 51.0715 50.0034 52.3842V55.6003C50.0518 56.9969 52.0649 56.9957 52.1128 55.6003V52.3842C52.1128 52.2346 52.2346 52.1128 52.3842 52.1128H57.4609V56.4483C57.4609 57.0829 57.8085 57.6633 58.3681 57.9627C58.9265 58.2616 59.6025 58.23 60.1314 57.8775L61.0016 57.2972L61.8718 57.8775C62.3997 58.2296 63.0754 58.2623 63.6349 57.9627C64.1945 57.6633 64.5422 57.0829 64.5422 56.4483V52.1128H69.6194C69.769 52.1128 69.8908 52.2345 69.8908 52.3842V69.6192C69.8908 69.7688 69.769 69.8906 69.6194 69.8906H52.3842C52.2346 69.8906 52.1128 69.769 52.1128 69.6192V60.5222C52.0644 59.1256 50.0514 59.1268 50.0034 60.5222V69.6192C50.0034 70.932 51.0715 72 52.3842 72H69.6192C70.932 72 72 70.932 72 69.6192V52.3842C72 51.0715 70.932 50.0034 69.6192 50.0034ZM34.0587 38.1278L33.4081 33.7323C33.3465 33.3152 33.0424 32.975 32.6348 32.8672C31.5013 32.5668 30.4113 32.114 29.3947 31.521C29.0309 31.3085 28.5742 31.3329 28.2345 31.5849L24.6627 34.236C24.6305 34.2602 24.5848 34.2565 24.5562 34.228L21.9253 31.597C21.8969 31.5686 21.8933 31.5229 21.9174 31.4904L24.5683 27.9187C24.82 27.5797 24.8452 27.1233 24.6324 26.7585C24.0394 25.7424 23.5865 24.6523 23.2861 23.5185C23.1781 23.1112 22.8379 22.807 22.421 22.7454L18.0255 22.0949C17.9851 22.0888 17.9558 22.0549 17.9558 22.014V18.2931C17.9558 18.2528 17.9858 18.2181 18.0256 18.2122L22.421 17.5618C22.8379 17.5002 23.1781 17.196 23.2861 16.7887C23.5865 15.6549 24.0394 14.5648 24.6324 13.5484C24.8452 13.1837 24.82 12.7274 24.5683 12.3884L21.9174 8.81662C21.8935 8.78442 21.8969 8.73858 21.9253 8.71017L24.5562 6.07908C24.5848 6.05067 24.6303 6.0473 24.6628 6.0712L28.2347 8.72213C28.5737 8.97356 29.0301 8.99916 29.3948 8.78611C30.4109 8.19337 31.501 7.74028 32.635 7.43991C33.0424 7.33191 33.3464 6.99159 33.4081 6.57478L34.0587 2.17941C34.0646 2.13975 34.0993 2.10966 34.1395 2.10966H37.8605C37.9007 2.10966 37.9354 2.13975 37.9413 2.17941L38.5917 6.57478C38.6533 6.99173 38.9575 7.33205 39.3649 7.43991C40.4989 7.74042 41.589 8.19337 42.605 8.78611C42.9698 8.99916 43.4263 8.9737 43.7652 8.72213L47.337 6.0712C47.3694 6.0473 47.4152 6.05067 47.4435 6.07908L50.0745 8.71017C50.1029 8.73858 50.1062 8.78428 50.0823 8.81662L47.4314 12.3884C47.1797 12.7274 47.1545 13.1837 47.3673 13.5484C47.9603 14.5648 48.4132 15.6548 48.7136 16.7887C48.8216 17.196 49.1618 17.5002 49.5788 17.5618L53.9741 18.2122C54.0139 18.2183 54.0439 18.253 54.0439 18.2931V22.014C54.0439 22.0549 54.0146 22.0888 53.9741 22.0949L49.5788 22.7454C49.1618 22.807 48.8216 23.1112 48.7136 23.5185C48.4132 24.6523 47.9603 25.7424 47.3673 26.7585C47.1545 27.1233 47.1797 27.5797 47.4314 27.9187L50.0823 31.4904C50.1064 31.5228 50.1029 31.5686 50.0745 31.597L47.4435 34.228C47.415 34.2565 47.3694 34.2602 47.3369 34.236L43.7652 31.5849C43.4263 31.3334 42.9697 31.3078 42.605 31.521C41.5886 32.114 40.4985 32.5669 39.3649 32.8672C38.9573 32.9752 38.6533 33.3153 38.5916 33.7323L37.941 38.1278C37.9351 38.1682 37.9011 38.1974 37.8602 38.1974H34.1393C34.0986 38.1974 34.0647 38.1682 34.0587 38.1278ZM12.4297 55.7162L11.9512 55.3971C11.3725 55.0112 10.6244 55.0112 10.0457 55.3971L9.56714 55.7162V52.1128H12.4296L12.4297 55.7162ZM34.5687 52.1124H37.4311V55.7162L36.9526 55.3971C36.3741 55.0114 35.6261 55.0112 35.0471 55.3971L34.5687 55.7162V52.1124ZM44.889 52.3837V69.6195C44.889 69.7688 44.7674 69.8906 44.6179 69.8906H27.3821C27.2326 69.8906 27.111 69.769 27.111 69.6195V52.3837C27.111 52.2342 27.2326 52.1124 27.3821 52.1124H32.4593V56.4483C32.4593 57.0829 32.807 57.6633 33.3665 57.9627C33.9249 58.2616 34.6009 58.23 35.1298 57.8775L36 57.2972L36.8702 57.8775C37.3981 58.2296 38.0738 58.2623 38.6335 57.9627C39.193 57.6633 39.5407 57.0829 39.5407 56.4483V52.1124H44.6179C44.7674 52.1124 44.889 52.234 44.889 52.3837ZM62.4327 55.7162L61.9542 55.3971C61.3755 55.0114 60.6275 55.0112 60.0487 55.3971L59.5703 55.7162V52.1128H62.4327V55.7162Z" fill="#3B82F6"/>
<path d="M66.6363 67.691C68.0328 67.6426 68.0317 65.6295 66.6363 65.5816H63.3218C61.9252 65.63 61.9263 67.643 63.3218 67.691H66.6363Z" fill="#3B82F6"/>
<path d="M38.3203 65.5816C36.9238 65.63 36.9249 67.643 38.3203 67.691H41.6348C43.0314 67.6426 43.0303 65.6295 41.6348 65.5816H38.3203Z" fill="#3B82F6"/>
<path d="M13.3187 65.5816C11.9222 65.63 11.9233 67.643 13.3187 67.691H16.6333C18.0298 67.6426 18.0287 65.6295 16.6333 65.5816H13.3187Z" fill="#3B82F6"/>
</g>
<defs>
<clipPath id="clip0_758_10481">
<rect width="72" height="72" fill="white"/>
</clipPath>
</defs>
</svg>
