<svg width="220" height="48" viewBox="0 0 220 48" fill="none" xmlns="http://www.w3.org/2000/svg">
<g clip-path="url(#clip0_1873_12743)">
<path d="M182.808 32.6256C182.808 34.1774 181.567 35.4406 179.961 35.4406C178.355 35.4406 177.077 34.2135 177.077 32.6256C177.077 31.0376 178.355 29.8466 179.961 29.8466C181.567 29.8466 182.808 31.1098 182.808 32.6256ZM177.807 32.6256C177.807 33.8526 178.72 34.8271 179.997 34.8271C181.275 34.8271 182.114 33.8526 182.114 32.6256C182.114 31.3985 181.202 30.388 179.961 30.388C178.72 30.4241 177.807 31.3985 177.807 32.6256ZM179.523 34.0692H178.866V31.2902C179.121 31.2541 179.486 31.218 179.924 31.218C180.435 31.218 180.691 31.2902 180.91 31.4346C181.056 31.5429 181.165 31.7594 181.165 32.0481C181.165 32.3368 180.91 32.5895 180.581 32.6977V32.7338C180.837 32.8421 181.019 33.0226 181.092 33.4195C181.165 33.8526 181.238 33.997 181.311 34.1053H180.618C180.545 33.997 180.472 33.7444 180.399 33.4195C180.362 33.1308 180.18 32.9865 179.815 32.9865H179.523V34.0692ZM179.523 32.5173H179.815C180.18 32.5173 180.472 32.409 180.472 32.1203C180.472 31.8677 180.289 31.6872 179.888 31.6872C179.705 31.6872 179.596 31.6872 179.523 31.7233V32.5173Z" fill="#03173E"/>
<path d="M6.73149 32.3729H11.951C13.995 32.3729 15.674 34.0331 15.674 36.0541V41.215C15.674 44.391 18.2655 47.3864 21.4775 47.3864C21.66 47.3864 21.8425 47.206 21.8425 47.0255V34.1413C21.8425 29.8105 18.302 26.3098 13.922 26.3098H0.85499C0.67249 26.3098 0.48999 26.4541 0.48999 26.6707C0.48999 29.7744 3.51949 32.3729 6.73149 32.3729ZM6.73149 15.988H11.951C13.995 15.988 15.674 14.3278 15.674 12.3068V7.14585C15.674 3.96991 18.2655 0.974426 21.4775 0.974426C21.66 0.974426 21.8425 1.15488 21.8425 1.33533V14.2195C21.8425 18.5504 18.302 22.0511 13.922 22.0511H0.85499C0.67249 22.0511 0.48999 21.9068 0.48999 21.6902C0.48999 18.5865 3.51949 15.988 6.73149 15.988ZM41.151 32.3729H35.9315C33.8875 32.3729 32.2085 34.0331 32.2085 36.0541V41.215C32.2085 44.391 29.617 47.3864 26.405 47.3864C26.2225 47.3864 26.04 47.206 26.04 47.0255V34.1413C26.04 29.8105 29.5805 26.3098 33.9605 26.3098H46.991C47.1735 26.3098 47.356 26.4541 47.356 26.6707C47.3925 29.7744 44.3265 32.3729 41.151 32.3729ZM41.151 15.988H35.9315C33.8875 15.988 32.2085 14.3278 32.2085 12.3068V7.14585C32.2085 3.96991 29.617 0.974426 26.405 0.974426C26.2225 0.974426 26.04 1.15488 26.04 1.33533V14.2195C26.04 18.5504 29.5805 22.0511 33.9605 22.0511H46.991C47.1735 22.0511 47.356 21.9068 47.356 21.6902C47.3925 18.5865 44.3265 15.988 41.151 15.988ZM24.872 20.391C25.6385 21.5459 26.624 22.5203 27.792 23.2782C28.7045 23.8556 28.7045 24.5052 27.792 25.0827C26.624 25.8406 25.6385 26.815 24.872 27.9699C24.288 28.8722 23.631 28.8722 23.047 27.9699C22.2805 26.815 21.295 25.8406 20.127 25.0827C19.2145 24.5052 19.2145 23.8556 20.127 23.2782C21.295 22.5203 22.2805 21.5459 23.047 20.391C23.5945 19.4887 24.288 19.4887 24.872 20.391Z" fill="#E05929"/>
<path d="M62.1385 9.31128H71.2635C71.373 9.31128 71.446 9.2391 71.446 9.13083V1.40753C71.446 1.19098 71.6285 1.01053 71.8475 1.01053H75.2055C75.4245 1.01053 75.607 1.19098 75.607 1.40753V21.2211C75.607 21.4376 75.4245 21.6181 75.2055 21.6181H71.8475C71.6285 21.6181 71.446 21.4376 71.446 21.2211V13.3173C71.446 13.209 71.373 13.1368 71.2635 13.1368H62.1385C62.029 13.1368 61.956 13.209 61.956 13.3173V21.2211C61.956 21.4376 61.7735 21.6181 61.5545 21.6181H58.1965C57.9775 21.6181 57.795 21.4376 57.795 21.2211V1.40753C57.795 1.19098 57.9775 1.01053 58.1965 1.01053H61.591C61.81 1.01053 61.956 1.19098 61.956 1.37143V9.13083C61.956 9.20301 62.029 9.31128 62.1385 9.31128ZM97.4706 6.82106L94.6965 8.33685C94.514 8.44512 94.295 8.40903 94.1856 8.22858C94.076 8.08422 93.7475 7.50678 92.981 6.56843C91.886 5.2331 90.2435 4.54738 88.3455 4.54738C84.659 4.54738 81.958 7.29023 81.958 11.2962C81.958 15.4466 84.7685 18.0451 88.3455 18.0451C90.134 18.0451 91.6305 17.3594 92.835 16.2045C93.346 15.6993 93.93 14.7609 94.149 14.4361C94.2585 14.2556 94.514 14.2196 94.66 14.3639L97.58 15.7353C97.7625 15.8436 97.7626 16.0963 97.653 16.2767C97.507 16.4932 96.8135 17.7925 96.2295 18.5143C94.368 20.6436 91.6306 21.979 88.3455 21.979C82.1405 21.979 77.724 17.5038 77.724 11.2962C77.724 5.08873 82.104 0.613547 88.3455 0.613547C91.74 0.613547 94.733 2.05715 96.485 4.51129C97.361 5.73836 97.507 6.13534 97.58 6.24361C97.6895 6.46016 97.653 6.6767 97.4706 6.82106ZM118.823 21.1128L110.976 1.22707C110.939 1.08271 110.793 1.01053 110.647 1.01053H106.085C105.939 1.01053 105.793 1.1188 105.756 1.22707L97.945 21.1128C97.8355 21.3654 98.018 21.6181 98.2735 21.6181H101.814C101.96 21.6181 102.106 21.5098 102.143 21.3654L103.822 16.9263C103.858 16.8541 103.931 16.8181 104.004 16.8181H107.143C109.041 16.7098 110.319 15.1579 110.319 13.2451C110.319 13.1369 110.209 13.0286 110.1 13.0286H105.574C105.428 13.0286 105.355 12.8842 105.391 12.7759L108.129 5.5579C108.202 5.37745 108.421 5.37745 108.494 5.5579L114.48 21.4015C114.516 21.5459 114.662 21.6541 114.808 21.6541H118.458C118.75 21.582 118.896 21.3293 118.823 21.1128ZM130.905 4.8V9.49173H141.344V13.2812H130.905V21.6181H126.744V1.01053H142.037V4.8H130.905ZM144.629 0.433096H148.498V21.6181H144.629V0.433096ZM151.345 14.4722C151.345 10.1775 154.666 6.96542 159.119 6.96542C163.609 6.96542 166.93 10.1775 166.93 14.4722C166.93 18.7669 163.609 21.979 159.119 21.979C154.63 21.979 151.345 18.7669 151.345 14.4722ZM162.952 14.4722C162.952 12.1624 161.309 10.5384 159.119 10.5384C156.929 10.5384 155.287 12.1624 155.287 14.4722C155.287 16.782 156.929 18.406 159.119 18.406C161.309 18.406 162.952 16.782 162.952 14.4722ZM179.596 7.29024L179.012 11.1158C178.355 10.8271 177.442 10.6466 176.676 10.6466C174.814 10.6466 173.646 11.7654 173.646 13.8587V21.6181H169.777V7.36241H173.5V8.9143C174.413 7.57896 175.8 7.00151 177.552 7.00151C178.391 6.96542 179.048 7.10979 179.596 7.29024ZM181.165 2.70678C181.165 1.33535 182.224 0.216553 183.647 0.216553C185.071 0.216553 186.129 1.29926 186.129 2.70678C186.129 4.11429 185.034 5.16091 183.647 5.16091C182.26 5.16091 181.165 4.0782 181.165 2.70678ZM185.582 21.6181H181.713V7.36241H185.582V21.6181ZM203.394 0.433096V21.6181H199.598V20.0301C198.649 21.185 197.262 21.979 195.291 21.979C191.312 21.979 188.319 18.7669 188.319 14.4722C188.319 10.1775 191.312 6.96542 195.291 6.96542C197.225 6.96542 198.612 7.72332 199.525 8.80602V0.397004H203.394V0.433096ZM199.744 14.4722C199.744 12.2346 198.247 10.5384 196.021 10.5384C193.794 10.5384 192.298 12.3068 192.298 14.4722C192.298 16.6376 193.721 18.406 196.021 18.406C198.284 18.406 199.744 16.7459 199.744 14.4722ZM219.49 13.209V21.6181H215.731V20.1744C214.891 21.1489 213.504 22.015 211.351 22.015C208.139 22.015 206.241 20.1744 206.241 17.5399C206.241 14.7248 208.394 13.0647 212.19 13.0647H215.585C215.439 11.3323 214.38 10.394 212.373 10.394C210.767 10.394 209.416 11.0436 208.431 11.7293L206.898 8.80602C208.431 7.68722 210.438 7.00151 212.774 7.00151C216.899 6.96542 219.49 9.09475 219.49 13.209ZM215.658 16.2406V15.6271H212.701C210.913 15.6271 210.256 16.385 210.256 17.2872C210.256 18.1895 210.913 18.8391 212.336 18.8391C213.869 18.803 215.658 18.0451 215.658 16.2406ZM69.11 47.3504V46.4481C70.0955 46.376 70.6795 46.2677 70.862 46.1955C71.0445 46.1233 71.1905 45.979 71.3365 45.7985C71.446 45.618 71.519 45.3293 71.519 44.9684V38.5444H62.978V44.8241C62.978 45.3293 63.124 45.7263 63.4525 45.979C63.781 46.2316 64.4015 46.376 65.3505 46.4481V47.3504H57.795V46.4481C58.963 46.412 59.6565 46.2316 59.912 45.979C60.1675 45.7263 60.277 45.4015 60.277 44.9684V31.976C60.277 30.9654 59.474 30.388 57.8315 30.2436V29.3414H65.387V30.2436C64.4745 30.3158 63.854 30.4602 63.5255 30.6406C63.197 30.8211 63.0145 31.2181 63.0145 31.8316V37.4256H71.5555V31.976C71.5555 30.9654 70.7525 30.388 69.1465 30.2436V29.3414H76.702V30.2436C75.7895 30.3158 75.169 30.4602 74.804 30.6767C74.439 30.8932 74.293 31.2541 74.293 31.8316V44.8241C74.293 45.3654 74.4755 45.7624 74.804 45.979C75.1325 46.1955 75.7895 46.376 76.702 46.4481V47.3504H69.11ZM87.506 44.4271C86.338 46.6286 84.586 47.7113 82.2865 47.7113C80.3885 47.7113 78.892 47.0978 77.8335 45.8707C76.775 44.6436 76.2275 43.0196 76.2275 40.9985C76.2275 39.2301 76.775 37.6782 77.87 36.415C78.965 35.1519 80.352 34.5023 82.031 34.5023C83.71 34.5023 84.9875 34.9714 85.8635 35.9459C86.7395 36.9203 87.1775 38.2196 87.1775 39.8797V40.7098H78.7825C78.7825 42.4782 79.1475 43.8496 79.8775 44.8241C80.6075 45.7985 81.666 46.2677 83.0165 46.2677C83.783 46.2677 84.4035 46.0872 84.951 45.7624C85.4985 45.4376 86.046 44.788 86.5935 43.8496L87.506 44.4271ZM84.659 39.6271C84.659 36.8481 83.783 35.4406 81.9945 35.4406C81.1185 35.4406 80.352 35.8015 79.768 36.5594C79.184 37.3173 78.8555 38.3278 78.7825 39.6271H84.659ZM100.391 47.1338C99.5145 47.4587 98.821 47.603 98.31 47.603C96.9595 47.603 96.1565 46.9895 95.9375 45.7985H95.8645C94.733 47.0617 93.346 47.6752 91.7765 47.6752C90.8275 47.6752 90.0611 47.3865 89.4405 46.809C88.82 46.2316 88.528 45.4737 88.528 44.5353C88.528 43.4887 88.82 42.6947 89.404 42.1173C89.988 41.576 90.9735 41.0707 92.397 40.6015C94.441 39.9519 95.609 39.5188 95.901 39.3384V38.0752C95.901 37.3534 95.682 36.7038 95.2805 36.1985C94.8791 35.6571 94.2585 35.4045 93.492 35.4045C92.689 35.4045 92.0685 35.6211 91.667 35.982C91.667 36.1985 91.7035 36.4511 91.7765 36.7399C91.8495 37.0286 91.886 37.3173 91.886 37.6421C91.886 37.9669 91.74 38.2556 91.448 38.4722C91.156 38.6887 90.791 38.797 90.3531 38.797C89.5135 38.797 89.112 38.3278 89.112 37.3534C89.112 36.5955 89.5865 35.9098 90.5355 35.3323C91.4846 34.7549 92.5065 34.4301 93.6015 34.4301C95.3535 34.4301 96.5945 34.791 97.2515 35.4406C97.945 36.1263 98.2735 37.1729 98.2735 38.5444L98.2006 44.8241C98.2006 45.2932 98.31 45.6181 98.529 45.8346C98.748 46.0511 98.9305 46.1955 99.113 46.1955C99.2956 46.1955 99.697 46.2316 100.354 46.2316L100.391 47.1338ZM95.9375 40.4211C94.076 40.9624 92.7985 41.5038 92.105 42.0812C91.4115 42.6587 91.083 43.3805 91.083 44.2105C91.083 45.582 91.74 46.2316 93.054 46.2316C94.076 46.2316 94.9885 45.7624 95.828 44.788L95.9375 40.4211ZM101.157 47.3504V46.5203L101.814 46.4481C102.654 46.412 103.092 45.979 103.092 45.2211V32.0842C103.092 31.6872 102.946 31.2902 102.69 30.8932C102.435 30.4963 101.705 30.2797 100.537 30.1714V29.3414L105.318 29.0526L105.501 29.2331V45.0406C105.501 45.9068 106.121 46.3759 107.399 46.4842V47.3143L101.157 47.3504ZM115.867 46.809C114.626 47.3504 113.494 47.603 112.436 47.603C110.501 47.603 109.516 46.5925 109.516 44.6075V36.0902H107.216V34.8993H109.552V31.0015H111.888V34.8993H115.502V36.0902H111.888V43.0917C111.888 44.2466 112.034 45.0406 112.29 45.4737C112.545 45.9068 113.093 46.0872 113.932 46.0872C114.662 46.0872 115.283 46.015 115.757 45.8707L115.867 46.809ZM124.809 47.3504V46.5203C125.065 46.4842 125.284 46.4842 125.466 46.4481C126.306 46.412 126.744 45.979 126.744 45.2211V38.7609C126.744 37.9308 126.525 37.2451 126.123 36.7399C125.722 36.2346 125.174 35.982 124.554 35.982C123.094 35.982 121.999 36.6316 121.269 37.8947V45.1128C121.269 45.979 121.926 46.4481 123.203 46.5203V47.3504H116.998V46.5203L117.619 46.4481C118.458 46.376 118.86 45.979 118.86 45.2211V32.012C118.86 31.6872 118.787 31.3624 118.604 31.0376C118.422 30.7128 118.239 30.5323 117.984 30.4241C117.728 30.3158 117.181 30.2436 116.378 30.2075V29.3775L121.05 29.0887L121.232 29.2692V36.6316H121.269C122.218 35.6932 122.984 35.1158 123.605 34.8632C124.225 34.6105 124.882 34.5023 125.612 34.5023C127.948 34.5023 129.116 35.8737 129.116 38.6526V45.1489C129.116 45.979 129.737 46.4481 130.978 46.5564V47.3865L124.809 47.3504ZM142.147 44.4632C141.599 45.4376 140.869 46.2316 139.957 46.809C139.008 47.4226 138.059 47.7113 137.037 47.7113C135.212 47.7113 133.752 47.0978 132.73 45.9068C131.708 44.7158 131.16 43.0917 131.16 41.0346C131.16 39.2301 131.744 37.7143 132.876 36.415C134.007 35.1158 135.467 34.5023 137.183 34.5023C138.46 34.5023 139.482 34.791 140.249 35.4045C141.015 36.0181 141.38 36.812 141.38 37.7865C141.38 38.8692 140.942 39.4105 140.066 39.4105C139.555 39.4105 139.19 39.3023 138.898 39.0496C138.606 38.797 138.46 38.5083 138.46 38.1835C138.46 37.8587 138.497 37.4617 138.606 37.0286C138.716 36.5955 138.789 36.3068 138.789 36.1263C138.533 35.6932 137.986 35.4767 137.11 35.4767C136.161 35.4767 135.358 35.9459 134.737 36.8842C134.117 37.8226 133.788 39.194 133.788 40.9624C133.788 42.5504 134.153 43.8496 134.847 44.8602C135.577 45.8346 136.489 46.3399 137.621 46.3399C139.081 46.3399 140.285 45.5459 141.234 43.9579L142.147 44.4632ZM154.739 47.1338C153.863 47.4587 153.17 47.603 152.659 47.603C151.308 47.603 150.505 46.9895 150.286 45.7985H150.213C149.082 47.0617 147.695 47.6752 146.125 47.6752C145.176 47.6752 144.41 47.3865 143.789 46.809C143.169 46.2316 142.877 45.4737 142.877 44.5353C142.877 43.4887 143.169 42.6947 143.753 42.1173C144.337 41.576 145.322 41.0707 146.746 40.6015C148.79 39.9519 149.958 39.5188 150.25 39.3384V38.0752C150.25 37.3534 150.031 36.7038 149.629 36.1985C149.228 35.6571 148.607 35.4045 147.841 35.4045C147.074 35.4045 146.417 35.6211 146.016 35.982C146.016 36.1985 146.052 36.4511 146.125 36.7399C146.198 37.0286 146.235 37.3173 146.235 37.6421C146.235 37.9669 146.089 38.2556 145.797 38.4722C145.505 38.6887 145.14 38.797 144.702 38.797C143.862 38.797 143.461 38.3278 143.461 37.3534C143.461 36.5955 143.935 35.9098 144.884 35.3323C145.833 34.7549 146.855 34.4301 147.95 34.4301C149.702 34.4301 150.943 34.791 151.6 35.4406C152.294 36.1263 152.622 37.1729 152.622 38.5444L152.549 44.8241C152.549 45.2932 152.659 45.6181 152.878 45.8346C153.097 46.0511 153.279 46.1955 153.462 46.1955C153.644 46.1955 154.046 46.2316 154.703 46.2316L154.739 47.1338ZM150.25 40.4211C148.388 40.9624 147.111 41.5038 146.417 42.0812C145.724 42.6587 145.395 43.3805 145.395 44.2105C145.395 45.582 146.052 46.2316 147.366 46.2316C148.388 46.2316 149.301 45.7624 150.14 44.788L150.25 40.4211ZM162.696 35.9459C161.565 36.0181 160.616 36.6316 159.886 37.7865V45.0767C159.886 45.5459 160.032 45.8707 160.324 46.0872C160.616 46.3038 161.273 46.4481 162.295 46.5203V47.3504H155.615V46.5203L156.236 46.4481C157.075 46.376 157.477 45.979 157.477 45.2211V37.4977C157.477 36.415 156.82 35.8376 155.469 35.7654V34.9353L159.667 34.6827L159.849 34.8632V36.5955H159.922C161.017 35.188 162.222 34.5023 163.463 34.5023C164.01 34.5023 164.448 34.6827 164.777 35.0075C165.105 35.3684 165.288 35.8376 165.288 36.415C165.288 36.8842 165.178 37.2812 164.923 37.606C164.667 37.8947 164.375 38.0752 163.974 38.0752C163.536 38.0752 163.171 37.9669 162.915 37.7504C162.66 37.5338 162.514 37.2451 162.514 36.9203C162.587 36.6677 162.623 36.3429 162.696 35.9459ZM176.676 44.4271C175.508 46.6286 173.756 47.7113 171.456 47.7113C169.558 47.7113 168.062 47.0978 167.003 45.8707C165.945 44.6436 165.397 43.0196 165.397 40.9985C165.397 39.2301 165.945 37.6782 167.04 36.415C168.135 35.1519 169.522 34.5023 171.201 34.5023C172.88 34.5023 174.157 34.9714 175.033 35.9459C175.909 36.9203 176.347 38.2196 176.347 39.8797V40.7098H167.952C167.952 42.4782 168.317 43.8496 169.047 44.8241C169.777 45.7985 170.836 46.2677 172.186 46.2677C172.953 46.2677 173.573 46.0872 174.121 45.7624C174.668 45.4376 175.216 44.788 175.763 43.8496L176.676 44.4271ZM173.829 39.6271C173.829 36.8481 172.953 35.4406 171.164 35.4406C170.288 35.4406 169.522 35.8015 168.938 36.5594C168.354 37.3173 168.025 38.3278 167.952 39.6271H173.829Z" fill="#03173E"/>
</g>
<defs>
<clipPath id="clip0_1873_12743">
<rect width="219" height="48" fill="white" transform="translate(0.48999)"/>
</clipPath>
</defs>
</svg>
