<svg width="178" height="28" viewBox="0 0 178 28" fill="none" xmlns="http://www.w3.org/2000/svg">
<g clip-path="url(#clip0_1873_12683)">
<path d="M123.079 25.5291C123.079 26.3402 122.486 26.9577 121.67 26.9577C120.854 26.9577 120.252 26.3156 120.252 25.5291C120.252 24.7425 120.873 24.082 121.67 24.082C122.467 24.082 123.079 24.7364 123.079 25.5291ZM120.524 25.5291C120.524 26.1712 121.018 26.7088 121.67 26.7088C122.322 26.7088 122.817 26.1988 122.817 25.5291C122.817 24.8593 122.316 24.337 121.67 24.337C121.024 24.337 120.524 24.8746 120.524 25.5291ZM121.123 24.7487H121.704C121.93 24.7487 122.279 24.8132 122.279 25.1942C122.279 25.483 122.063 25.5874 121.865 25.612L122.372 26.2818H122.041L121.559 25.6274H121.407V26.2818H121.123V24.7487ZM121.407 24.9914V25.4031H121.692C121.843 25.4031 121.982 25.3754 121.982 25.1942C121.982 25.0129 121.843 24.9914 121.692 24.9914H121.407ZM150.774 25.5291C150.774 26.3402 150.181 26.9577 149.365 26.9577C148.549 26.9577 147.947 26.3156 147.947 25.5291C147.947 24.7425 148.568 24.082 149.365 24.082C150.162 24.082 150.774 24.7364 150.774 25.5291ZM148.219 25.5291C148.219 26.1712 148.713 26.7088 149.365 26.7088C150.017 26.7088 150.512 26.1988 150.512 25.5291C150.512 24.8593 150.011 24.337 149.365 24.337C148.719 24.337 148.219 24.8746 148.219 25.5291ZM148.818 24.7487H149.399C149.625 24.7487 149.974 24.8132 149.974 25.1942C149.974 25.483 149.758 25.5874 149.56 25.612L150.067 26.2818H149.736L149.254 25.6274H149.102V26.2818H148.818V24.7487ZM149.102 24.9914V25.4031H149.387C149.538 25.4031 149.677 25.3754 149.677 25.1942C149.677 25.0129 149.538 24.9914 149.387 24.9914H149.102ZM175.447 25.5291C175.447 26.3402 174.854 26.9577 174.038 26.9577C173.222 26.9577 172.619 26.3156 172.619 25.5291C172.619 24.7425 173.241 24.082 174.038 24.082C174.835 24.082 175.447 24.7364 175.447 25.5291ZM172.891 25.5291C172.891 26.1712 173.386 26.7088 174.038 26.7088C174.69 26.7088 175.184 26.1988 175.184 25.5291C175.184 24.8593 174.684 24.337 174.038 24.337C173.392 24.337 172.891 24.8746 172.891 25.5291ZM173.491 24.7487H174.072C174.297 24.7487 174.647 24.8132 174.647 25.1942C174.647 25.483 174.43 25.5874 174.233 25.612L174.739 26.2818H174.409L173.927 25.6274H173.775V26.2818H173.491V24.7487ZM173.775 24.9914V25.4031H174.059C174.211 25.4031 174.35 25.3754 174.35 25.1942C174.35 25.0129 174.211 24.9914 174.059 24.9914H173.775Z" fill="#1355E9"/>
<path d="M178 8.15483C178 16.653 173.201 22.343 172.017 23.5904C170.837 24.8378 168.491 26.7641 167.586 26.9577C166.677 26.7641 164.335 24.8378 163.154 23.5904C161.971 22.343 157.172 16.653 157.172 8.15483C157.172 4.95958 157.771 2.36343 158.794 0.59375C161.343 1.93944 163.884 2.62151 167.586 2.62151C171.288 2.62151 173.828 1.93944 176.378 0.59375C177.401 2.36036 178 4.95958 178 8.15483Z" fill="#1355E9"/>
<path d="M176.13 8.07803C176.13 6.44046 175.874 4.06245 175.302 3.20526L175.206 3.26056C173.652 4.08088 170.759 4.79367 167.586 4.79367C164.412 4.79367 161.421 4.02558 159.866 3.20526C159.295 4.06245 159.038 6.44046 159.038 8.07803C159.038 15.7436 163.049 20.6655 163.596 21.326C164.335 22.2232 167.088 24.6841 167.586 24.8009C168.08 24.6841 170.834 22.2232 171.575 21.326C172.119 20.6624 176.13 15.7436 176.13 8.07803ZM174.826 4.45571C175.339 5.22688 175.444 7.21469 175.401 8.68636C175.179 16.2874 171.674 20.0142 171.18 20.6133C170.515 21.4213 168.034 23.7286 167.586 23.8454C167.135 23.7286 164.653 21.4213 163.986 20.6133C163.491 20.0142 159.99 16.2874 159.767 8.68943C159.724 7.21469 159.826 5.22688 160.339 4.45878C161.742 5.19615 164.721 5.61707 167.583 5.61707C170.435 5.61707 173.42 5.19922 174.823 4.45878L174.826 4.45571ZM166.98 20.9113L166.965 20.1893C166.631 20.3183 166.365 20.813 166.368 21.2185C166.368 21.2953 166.39 21.6118 166.541 21.6917C166.597 21.7193 166.64 21.6917 166.665 21.6517C166.776 21.4858 166.751 21.1048 166.98 20.9113ZM167.765 19.4642C167.697 19.3782 167.555 19.2461 167.329 19.1815C167.187 19.1385 167.187 19.1508 167.064 19.1047C167.091 19.7837 167.125 20.604 167.135 21.0864C167.147 21.5596 167.162 22.1433 167.162 22.2508C167.437 22.4382 167.784 22.2816 167.784 22.2816C167.79 22.2047 167.852 21.4643 167.867 20.6624C167.87 20.3337 167.907 19.6025 167.765 19.4611V19.4642ZM168.161 18.3028C168.034 18.2506 167.709 18.1277 167.555 18.0632C167.357 17.9803 167.011 17.8051 166.872 17.756C166.742 17.713 166.526 17.6822 166.807 17.5348C166.798 17.3289 166.773 17.1876 166.764 17.0309C166.764 16.9049 166.742 16.7544 166.73 16.6038C165.593 16.613 165.135 18.3489 166.989 18.8098C167.261 18.8774 167.345 18.905 167.456 18.9603C167.66 19.0679 167.74 19.1324 167.836 19.2215C167.954 19.3321 168.025 19.4796 168.025 19.6762V20.561C169.091 20.008 169.196 18.7514 168.161 18.3028ZM167.92 16.8926C167.92 16.7482 167.938 16.5547 167.947 16.4072C167.95 16.3365 167.935 16.1123 167.938 16.057C167.753 16.0078 167.75 16.057 167.379 16.0201C167.178 15.9986 167.088 15.974 166.921 15.9648C166.915 16.1 166.928 16.4779 166.937 16.5946L166.962 16.9909V17.3013C166.962 17.3381 166.968 17.5102 166.971 17.5501C167.104 17.6208 167.221 17.7345 167.437 17.8205C167.589 17.8758 167.787 17.971 167.932 17.9925C167.932 17.8574 167.926 17.5655 167.932 17.4242C167.935 17.1569 167.916 17.1661 167.923 16.8926H167.92ZM168.185 14.6437C167.901 14.5822 167.75 14.5484 167.666 14.5392C167.172 14.4778 167.02 14.487 166.609 14.4593L166.353 13.8694L166.062 13.1628C165.104 13.5315 164.996 15.4118 166.479 15.6944C167.119 15.8173 167.311 15.805 167.505 15.8265C167.876 15.8665 168.281 15.8265 168.389 15.9863C168.587 16.2689 168.315 16.3212 168.185 16.4686C168.142 16.5762 168.142 16.6253 168.133 16.779C168.108 17.0247 168.102 17.2705 168.099 17.501C169.696 17.3412 170.169 15.0646 168.185 14.6437ZM166.442 13.5407L166.767 14.2688L167.929 14.3764V12.1428L166.606 12.0414L166.133 12.7941L166.442 13.5407ZM168.346 10.7295C168.238 10.7049 168.136 10.665 168.018 10.6342C167.75 10.5666 167.447 10.5144 167.116 10.4775C166.792 10.453 166.492 10.3669 166.248 10.3178C164.486 9.96446 164.721 9.20558 164.829 8.85226C165.126 8.9598 165.401 9.02739 165.698 9.06426C166.044 9.10727 166.415 9.11956 166.739 8.97516C166.449 8.7263 165.744 8.61262 165.531 8.41906C165.531 8.41906 165.914 8.3699 166.557 8.44364C166.878 8.48051 167.283 8.29616 167.283 8.29616C167.045 7.72778 166.291 7.19933 164.894 7.42976C162.972 7.74621 162.391 11.2948 166.343 11.8048C166.575 11.8355 167.026 11.8662 167.289 11.8939C167.7 11.9308 167.892 11.9308 168.133 11.9769C168.3 12.0076 168.748 12.6528 168.133 12.7173C168.133 12.7173 168.031 13.4024 168.207 14.1429C170.055 14.1705 170.827 11.3317 168.346 10.7325V10.7295ZM169.378 7.71856C169.174 7.85374 168.556 8.40677 168.315 8.52352C168.188 8.58804 168.216 7.38367 168.216 7.38367C168.225 7.28536 167.907 7.07951 167.567 6.94125C167.527 6.91975 167.471 6.85523 167.373 6.80914C166.847 6.64016 166.56 6.52956 166.575 7.03035C166.578 7.11023 166.541 7.21162 166.634 7.36524C166.634 7.36524 167.141 7.61103 167.363 8.03501C167.496 8.28695 167.533 8.44057 167.533 8.44057C167.533 8.44057 167.422 8.53274 167.098 8.57882C167.345 8.6587 167.555 8.76009 167.753 8.79696L167.938 8.99666C167.793 9.01203 167.403 8.9598 166.977 8.82154L167.042 9.0151C166.872 9.15335 166.795 9.19022 166.504 9.22095C166.489 9.54662 166.51 9.90301 166.56 10.198L167.991 10.4345C168.105 10.3669 168.232 10.115 168.247 10.0996C168.504 9.82927 168.989 9.31926 170.012 8.33303C170.398 7.95821 169.789 7.44205 169.381 7.71549L169.378 7.71856ZM166.056 7.86296C165.84 7.73085 165.704 7.70627 165.704 7.70627C165.704 7.70627 166.14 7.55573 166.52 7.7585C166.52 7.7585 166.461 7.9367 166.334 7.95206C166.217 7.96742 166.14 7.91212 166.059 7.86296H166.056Z" fill="white"/>
<path d="M153.624 19.6585H146.285L146.287 26.9587H134.603V19.6585H127.26V8.01772H134.603V0.717499H146.285V8.01772H153.624V19.6585Z" fill="#1355E9"/>
<path d="M133.911 10.7887H138.769C139.251 10.7918 139.637 10.6535 139.863 10.42C140.15 10.1281 140.172 9.68879 139.776 9.20643C139.075 8.35231 139.68 7.53506 140.419 7.56271C141.154 7.59344 141.763 8.35231 141.065 9.20643C140.666 9.68879 140.688 10.1251 140.978 10.42C141.201 10.6504 141.59 10.7918 142.072 10.7918H147.057C146.531 9.66113 146.368 9.36004 145.465 8.58581C144.269 7.55657 142.041 6.60721 140.478 6.60721C138.478 6.60721 136.67 7.41524 135.36 8.71792C134.761 9.31396 134.269 10.0145 133.908 10.7887H133.911ZM135.95 19.4159C136.414 18.5495 138.438 14.7981 139.072 13.6214C139.773 12.3126 139.007 11.7657 137.971 11.7043C137.004 11.649 135.431 11.3909 133.667 11.3509C133.392 12.1129 133.24 12.9455 133.24 13.8027C133.24 16.0701 134.297 18.0948 135.95 19.4159ZM144.495 19.7907C144.495 19.7907 141.241 15.1115 141.062 14.8073C140.876 14.5062 140.722 14.3188 140.416 14.3188C140.11 14.3188 139.955 14.5032 139.773 14.8073C139.612 15.0746 136.992 18.8598 136.383 19.7385C137.548 20.5373 138.957 20.9981 140.478 20.9981C141.998 20.9981 143.349 20.5527 144.495 19.7907ZM147.715 13.8027C147.715 12.9363 147.564 12.1067 147.282 11.3386C145.472 11.3694 143.852 11.6459 142.866 11.7043C141.825 11.7657 141.062 12.3157 141.76 13.6214C142.468 14.9272 144.819 19.3053 144.912 19.4896C146.618 18.1716 147.715 16.1162 147.715 13.8057V13.8027Z" fill="white"/>
<path d="M138.979 9.84854H135.644C136.38 8.8746 137.449 8.14338 138.58 7.90067C138.212 9.1757 138.979 9.26787 138.979 9.84854ZM145.193 9.84854C144.353 9.01286 143.389 8.14338 142.255 7.90067C142.622 9.17877 141.856 9.27094 141.856 9.84854H145.193ZM140.419 15.6891C140.206 15.6891 137.82 19.4343 137.82 19.4343C138.521 19.7968 139.411 19.9812 140.419 19.9812C141.426 19.9812 142.316 19.7999 143.021 19.4343C143.021 19.4343 140.632 15.6891 140.419 15.6891ZM142.959 12.6782C142.687 12.7089 142.44 12.7366 142.687 13.1943C142.928 13.6491 145.162 17.8459 145.162 17.8459C146.263 16.4787 146.967 14.7735 146.541 12.4017C146.541 12.4017 143.175 12.6751 142.959 12.6751V12.6782ZM137.879 12.6782C137.665 12.6782 134.3 12.4047 134.3 12.4047C133.871 14.7766 134.575 16.4818 135.675 17.849C135.675 17.849 137.91 13.6521 138.157 13.1974C138.398 12.7396 138.157 12.7089 137.879 12.6813V12.6782Z" fill="#1355E9"/>
<path d="M16.1528 22.005H6.46794L4.53034 26.9546H0L8.88762 4.91657H13.9711L22.8958 26.9577H18.0874L16.1498 22.0081L16.1528 22.005ZM14.7004 18.1892L11.3104 9.49131L7.92036 18.1892H14.6973H14.7004ZM24.6171 10.4868H28.8353V12.8248C29.7006 11.0705 31.3601 10.0382 33.5387 10.0382C37.3428 10.0382 39.7996 12.6866 39.7996 16.9848V26.9577H35.5814V17.6054C35.5814 15.3687 34.302 13.9585 32.2253 13.9585C30.1487 13.9585 28.8353 15.3687 28.8353 17.6054V26.9577H24.6171V10.4868ZM41.3571 10.4868H44.262V6.22232H48.5512V10.4868H52.9796V14.1982H48.5512V21.2124C48.5512 22.7578 49.1755 23.4798 50.4178 23.4798C51.212 23.4798 51.9753 23.1357 52.3894 22.6564L54.259 25.784C53.3597 26.6781 51.8022 27.4001 49.7626 27.4001C46.4097 27.4001 44.265 25.3386 44.265 21.3138V14.1951H41.3602V10.4837L41.3571 10.4868ZM56.314 3.30051H60.5322V12.8248C61.3975 11.0705 63.057 10.0382 65.2356 10.0382C69.0397 10.0382 71.4965 12.6866 71.4965 16.9848V26.9577H67.2783V17.6054C67.2783 15.3687 65.9989 13.9585 63.9223 13.9585C61.8456 13.9585 60.5322 15.3687 60.5322 17.6054V26.9577H56.314V3.30051ZM73.7833 18.7053C73.7833 13.9247 77.3464 10.0413 82.1178 10.0413C86.8892 10.0413 90.4862 13.6513 90.4862 18.3981C90.4862 18.948 90.4522 19.6025 90.3812 19.8759H78.1035C78.5516 22.1464 80.2822 23.7256 82.8069 23.7256C84.5004 23.7256 85.9188 23.0036 86.8892 22.0081L89.0678 24.8961C87.7884 26.3064 85.4367 27.4063 82.6709 27.4063C77.5164 27.4063 73.7833 23.5197 73.7833 18.7084V18.7053ZM78.2117 16.951H86.132C85.6129 14.7512 84.1264 13.5806 82.1889 13.5806C80.2513 13.5806 78.7308 14.957 78.2117 16.951ZM92.8441 26.9577V10.4868H97.0623V12.9969C97.9276 11.2088 99.5531 10.0382 101.732 10.0382C104.256 10.0382 106.194 11.2764 107.161 13.4762C108.027 11.516 109.618 10.0382 112.245 10.0382C116.083 10.0382 118.608 12.5821 118.608 16.9848V26.9577H114.352V17.6054C114.352 15.3687 113.107 13.9585 111.101 13.9585C109.096 13.9585 107.816 15.3687 107.816 17.6054V26.9577H103.598V17.6054C103.598 15.3687 102.353 13.9585 100.347 13.9585C98.3417 13.9585 97.0623 15.3687 97.0623 17.6054V26.9577H92.8441Z" fill="#1355E9"/>
</g>
<defs>
<clipPath id="clip0_1873_12683">
<rect width="178" height="27" fill="white" transform="translate(0 0.5)"/>
</clipPath>
</defs>
</svg>
