<svg width="174" height="50" viewBox="0 0 174 50" fill="none" xmlns="http://www.w3.org/2000/svg">
<g clip-path="url(#clip0_1873_12772)">
<path d="M129.089 38.6469V9.38947H138.396L138.453 12.8831C140.312 10.2032 143.051 8.95093 146.225 8.95093C150.223 8.95093 153.067 10.8074 154.602 13.7017C156.464 10.5345 159.977 8.95093 163.582 8.95093C169.986 8.95093 173.49 13.7553 173.49 19.8144V38.6469H164.019V21.2347C164.019 18.3964 162.213 16.7032 160.021 16.7032C157.83 16.7032 156.026 18.4086 156.026 21.2347V38.6469H146.555V21.2347C146.555 18.3964 144.747 16.7032 142.558 16.7032C140.368 16.7032 138.56 18.4086 138.56 21.2347V38.6469H129.089ZM125.913 27.5106C125.913 35.0436 119.889 39.3022 112.229 39.3022C104.569 39.3022 98.5453 35.0436 98.5453 27.5106V9.38947H108.075V27.2377C108.075 29.8031 109.771 31.4403 112.229 31.4403C114.687 31.4403 116.383 29.8031 116.383 27.2377V9.38947H125.913V27.5106ZM95.9674 16.9225V9.38947H88.1482V1.91005H78.6674V28.166C78.6674 35.4261 82.9924 39.083 89.9466 39.083C91.9723 39.083 94.1006 38.8661 95.9674 38.1085V30.6291C94.8051 31.0127 93.59 31.2133 92.3657 31.2235C89.8464 31.2235 88.1482 30.076 88.1482 27.401V16.9249L95.9674 16.9225ZM66.6796 24.017C66.6796 28.222 63.613 31.3258 59.8378 31.3258C56.0064 31.3258 52.9398 28.2147 52.9398 24.017C52.9398 19.8753 56.0064 16.7568 59.8378 16.7568C63.613 16.7568 66.6796 19.8704 66.6796 24.017ZM52.9373 50V35.5893C55.4012 37.8854 58.6523 39.1553 62.0247 39.139C69.9637 39.139 76.197 32.4246 76.197 24.017C76.197 15.6654 69.9563 8.95093 62.0247 8.95093C60.2889 8.94285 58.5685 9.27633 56.9622 9.93227C55.3559 10.5882 53.8951 11.5537 52.6637 12.7735L52.6099 9.38947H43.4126V50H52.9373ZM30.4913 19.5464C30.4913 25.5518 26.0564 30.0224 20.5267 30.0224C14.9971 30.0224 10.5646 25.5469 10.5646 19.5464C10.5646 13.5458 14.9971 9.07031 20.5267 9.07031C26.0564 9.07031 30.4913 13.5385 30.4913 19.5415V19.5464ZM20.5267 0C9.30371 0 0.48999 8.67807 0.48999 19.5415C0.48999 30.4049 9.30371 39.083 20.5267 39.083C31.7497 39.083 40.5634 30.4049 40.5634 19.5415C40.5634 8.67807 31.7497 0 20.5267 0Z" fill="#FF612B"/>
</g>
<defs>
<clipPath id="clip0_1873_12772">
<rect width="173" height="50" fill="white" transform="translate(0.48999)"/>
</clipPath>
</defs>
</svg>
