<svg width="73" height="78" viewBox="0 0 73 78" fill="none" xmlns="http://www.w3.org/2000/svg">
<g clip-path="url(#clip0_1873_12696)">
<mask id="mask0_1873_12696" style="mask-type:luminance" maskUnits="userSpaceOnUse" x="-542" y="-722" width="660" height="858">
<path d="M-541.812 135.639H117.372V-721.287H-541.812V135.639Z" fill="white"/>
</mask>
<g mask="url(#mask0_1873_12696)">
<path d="M23.0423 20.8696C24.3351 20.8696 32.7303 24.5663 32.7303 37.8454C32.7303 44.1915 30.5896 49.4814 29.3256 49.4814C28.7685 49.4814 28.5566 48.9256 28.5566 47.8583C28.5566 45.509 29.3867 43.4276 29.3867 38.4122C29.3867 28.7292 25.3894 24.8221 23.5994 22.6233C23.0711 21.9723 22.6705 21.5483 22.6705 21.1663C22.6705 21.0102 22.7815 20.8696 23.0423 20.8696ZM44.2017 21.1663C44.2017 21.5483 43.8011 21.9723 43.2728 22.6233C41.4839 24.8221 37.4878 28.7292 37.4878 38.4122C37.4878 43.4276 38.3145 45.509 38.3145 47.8583C38.3145 48.9256 38.1048 49.4814 37.5477 49.4814C36.2837 49.4814 34.1419 44.1915 34.1419 37.8454C34.1419 24.5663 42.5382 20.8696 43.8332 20.8696C44.0918 20.8696 44.2017 21.0102 44.2017 21.1663Z" fill="#0982C6"/>
<path d="M30.3708 23.5277C30.3708 25.2615 31.7425 26.6653 33.4348 26.6653C35.1316 26.6653 36.5044 25.2615 36.5044 23.5277C36.5044 21.7917 35.1316 20.389 33.4348 20.389C31.7425 20.389 30.3708 21.7917 30.3708 23.5277Z" fill="#F8971F"/>
<path d="M17.5121 18.5668C15.9096 17.8438 14.71 16.3945 14.5147 14.9896C15.7043 14.2079 17.5831 14.1482 19.1878 14.8711C20.8646 15.6284 21.2575 16.9094 21.2675 18.0342C20.4141 18.7727 19.1922 19.3251 17.5121 18.5668ZM22.1097 10.116C21.0788 8.53496 20.838 6.53325 21.4761 5.15043C23.0042 5.1305 24.7387 6.16457 25.7686 7.74446C26.8461 9.39964 26.4566 10.7836 25.8107 11.8066C24.6089 11.9793 23.1851 11.7722 22.1097 10.116ZM24.4957 18.4881C23.2239 17.4131 22.5104 15.7823 22.699 14.4504C23.9852 14.0474 25.7153 14.4814 26.987 15.5553C28.3187 16.6835 28.3398 17.9501 28.0546 18.9797C27.0836 19.427 25.8274 19.613 24.4957 18.4881ZM28.3853 14.4416C27.8382 12.6779 28.1467 10.7249 29.12 9.58785C30.5659 9.97646 31.9243 11.418 32.4714 13.1827C33.044 15.0306 32.306 16.2307 31.4227 17.0234C30.2463 16.8662 28.9557 16.2905 28.3853 14.4416ZM21.6869 27.3253C20.4207 27.5711 19.0846 27.2091 18.3677 26.4507C18.745 25.4775 19.8514 24.6438 21.121 24.3981C22.4471 24.1412 23.2273 24.7424 23.7133 25.4133C23.5147 26.2193 23.0186 27.0663 21.6869 27.3253ZM18.34 23.5832C16.8984 23.4271 15.5834 22.6001 15.0674 21.5472C15.7953 20.6282 17.2591 20.0979 18.7029 20.254C20.2143 20.4179 20.8524 21.3213 21.1509 22.2026C20.6682 23.002 19.8525 23.7471 18.34 23.5832ZM18.2112 12.8949C17.0793 11.9372 16.4445 10.4891 16.6121 9.30442C17.7562 8.9446 19.2932 9.3321 20.4252 10.2865C21.607 11.2895 21.6292 12.4155 21.3751 13.3311C20.5106 13.7308 19.3942 13.8946 18.2112 12.8949ZM25.925 5.29879C25.4678 3.82851 25.7275 2.19991 26.5365 1.2533C27.7439 1.5788 28.8769 2.78005 29.333 4.24812C29.8102 5.78925 29.1921 6.78789 28.4574 7.45218C27.4753 7.31932 26.4033 6.83993 25.925 5.29879ZM6.9707 43.4508C6.9707 43.4907 6.99623 43.5228 7.04727 43.5228C7.09388 43.5228 7.17933 43.484 7.27144 43.4508C11.8014 41.83 18.4887 39.8427 27.8748 39.2348C27.8859 39.1507 27.9425 38.7333 27.9425 38.4122C27.9425 37.7347 27.8615 37.0272 27.8404 36.9099C18.2223 37.79 11.585 40.5723 7.22372 43.246C7.04727 43.3556 6.9707 43.3811 6.9707 43.4508ZM45.6062 18.0342C45.6162 16.9094 46.0079 15.6284 47.6859 14.8711C49.2872 14.1482 51.1693 14.2079 52.3579 14.9896C52.1614 16.3945 50.9629 17.8438 49.3616 18.5668C47.6803 19.3251 46.4607 18.7727 45.6062 18.0342ZM41.063 11.8066C40.4182 10.7836 40.0287 9.39964 41.1062 7.74446C42.135 6.16457 43.8695 5.1305 45.3976 5.15043C46.0346 6.53325 45.7927 8.53496 44.765 10.116C43.6897 11.7722 42.2626 11.9793 41.063 11.8066ZM38.8168 18.9797C38.5339 17.9501 38.555 16.6835 39.8866 15.5553C41.1595 14.4814 42.8874 14.0474 44.1758 14.4504C44.3622 15.7823 43.6486 17.4131 42.3769 18.4881C41.0474 19.613 39.7879 19.427 38.8168 18.9797ZM35.4488 17.0234C34.5666 16.2307 33.8297 15.0306 34.4012 13.1827C34.9461 11.418 36.3088 9.97646 37.7537 9.58785C38.727 10.7249 39.0355 12.6779 38.4884 14.4416C37.9157 16.2905 36.6284 16.8662 35.4488 17.0234ZM43.1604 25.4133C43.6475 24.7424 44.4244 24.1412 45.7538 24.3981C47.0234 24.6438 48.1276 25.4775 48.506 26.4507C47.7902 27.2091 46.4541 27.5711 45.1845 27.3253C43.8551 27.0663 43.3568 26.2193 43.1604 25.4133ZM45.7216 22.2026C46.0213 21.3213 46.6594 20.4179 48.1708 20.254C49.6146 20.0979 51.0761 20.6282 51.8052 21.5472C51.2892 22.6001 49.9753 23.4271 48.5337 23.5832C47.02 23.7471 46.2022 23.002 45.7216 22.2026ZM45.4975 13.3311C45.2433 12.4155 45.2633 11.2895 46.4485 10.2865C47.5805 9.3321 49.1174 8.9446 50.2605 9.30442C50.428 10.4891 49.7922 11.9372 48.6613 12.8949C47.4784 13.8946 46.3608 13.7308 45.4975 13.3311ZM38.4151 7.45218C37.6794 6.78789 37.0635 5.78925 37.5407 4.24812C37.9968 2.78005 39.1298 1.5788 40.3316 1.2533C41.1473 2.19991 41.4025 3.82851 40.9487 5.29879C40.4704 6.83993 39.3972 7.31932 38.4151 7.45218ZM59.6477 43.246C55.2887 40.5723 48.6502 37.79 39.0321 36.9099C39.0133 37.0272 38.9312 37.7347 38.9312 38.4122C38.9312 38.7333 38.9866 39.1507 38.9977 39.2348C48.3828 39.8427 55.069 41.83 59.6011 43.4508C59.6943 43.484 59.782 43.5228 59.8242 43.5228C59.8775 43.5228 59.903 43.4907 59.903 43.4508C59.903 43.3811 59.8242 43.3556 59.6477 43.246ZM33.4368 8.99775C32.1906 8.41871 30.9632 7.34368 30.9632 5.10836C30.9632 2.9738 31.9731 0.921158 33.4368 1.90735e-05C34.9006 0.921158 35.9104 2.9738 35.9104 5.10836C35.9104 7.34368 34.6853 8.41871 33.4368 8.99775Z" fill="#56B948"/>
<path d="M16.6339 54.9793C16.6339 56.072 17.5361 56.9577 18.6525 56.9577C19.7678 56.9577 20.6711 56.072 20.6711 54.9793C20.6711 53.8876 19.7678 53.003 18.6525 53.003C17.5361 53.003 16.6339 53.8876 16.6339 54.9793ZM32.3944 65.3919C32.3944 68.5141 31.1703 69.8149 29.4003 69.8149C27.6147 69.8149 26.6137 68.3037 26.6137 65.6532C26.6137 62.9474 28.1663 60.7098 31.0394 60.7098C31.632 60.7098 32.0459 60.7685 32.3944 60.8526V65.3919ZM32.5664 70.5136V71.5277C32.5664 74.311 30.8485 75.3916 28.7167 75.3916C26.8002 75.3916 25.3864 74.817 24.9403 74.6609V77.4144C25.3042 77.5118 26.8601 78 29.0807 78C33.0236 78 35.6581 76.377 35.6581 70.8125V58.8055C35.1521 58.6771 33.301 58.1878 31.1703 58.1878C25.6394 58.1878 23.2623 61.8856 23.2623 65.8868C23.2623 69.5647 25.1178 72.4488 28.6701 72.4488C31.0127 72.4488 32.1391 71.0372 32.5053 70.5136H32.5664ZM13.7596 68.8152C12.8719 69.2304 11.4514 69.5038 10.0764 69.5038C6.32662 69.5038 3.56559 66.8279 3.56559 62.7514C3.56559 58.7004 6.30775 55.9923 10.0764 55.9923C11.9441 55.9923 13.2736 56.4484 13.7596 56.6787V53.7647C12.9407 53.4614 11.6101 53.1547 9.73018 53.1547C3.91072 53.1547 0 57.1681 0 62.7514C0 68.028 3.59888 72.3425 9.73018 72.3425C11.528 72.3425 12.8818 72.058 13.7596 71.7303V68.8152ZM63.1396 65.3919C63.1396 68.5141 61.9145 69.8149 60.1456 69.8149C58.3578 69.8149 57.3535 68.3037 57.3535 65.6532C57.3535 62.9474 58.9127 60.7098 61.7836 60.7098C62.3706 60.7098 62.7868 60.7685 63.1396 60.8526V65.3919ZM66.814 72.1444C66.7086 71.3838 66.4023 69.3765 66.4023 67.6505V58.8055C65.8929 58.6771 64.0408 58.1878 61.9145 58.1878C56.3813 58.1878 54.0076 61.8856 54.0076 65.8868C54.0076 69.5647 55.8564 72.4488 59.412 72.4488C62.0077 72.4488 63.1718 70.7737 63.6113 69.8803H63.6967C63.7289 70.3043 63.8465 71.7458 63.8843 72.1444H66.814ZM20.286 58.5365H17.0234V72.1444H20.286V58.5365ZM39.3524 72.1444V62.7281C39.3524 61.466 39.237 59.0447 39.2037 58.4955H42.1356L42.2732 60.4098H42.3343C42.675 59.8739 43.7725 58.1878 46.3304 58.1878C49.4188 58.1878 51.1345 60.4519 51.1345 63.274V72.1444H47.8741V63.9172C47.8741 62.1845 46.9075 60.8748 45.2462 60.8748C43.5317 60.8748 42.6184 62.2565 42.6184 63.9172V72.1444H39.3524Z" fill="#0982C6"/>
<path d="M71.6029 69.8054C71.5196 69.7578 71.3831 69.7356 71.2 69.7356H70.9148V70.4165H71.2156C71.3554 70.4165 71.463 70.4055 71.534 70.3767C71.6639 70.3246 71.7294 70.2272 71.7294 70.0811C71.7294 69.9438 71.6872 69.8519 71.6029 69.8054ZM71.2433 69.5098C71.4775 69.5098 71.6506 69.5319 71.7593 69.5762C71.9557 69.6592 72.0523 69.8165 72.0523 70.0534C72.0523 70.2228 71.9902 70.349 71.8681 70.4265C71.8026 70.4686 71.7116 70.4996 71.5951 70.5173C71.7427 70.5405 71.8492 70.6025 71.9202 70.7033C71.9879 70.8018 72.0223 70.8992 72.0223 70.9945V71.1329C72.0223 71.176 72.0234 71.2236 72.0257 71.2724C72.0301 71.3222 72.0345 71.3565 72.0434 71.3709L72.0534 71.3941H71.7427C71.7405 71.3875 71.7405 71.3809 71.7382 71.3753C71.7371 71.3698 71.7338 71.362 71.7338 71.3543L71.7271 71.2945V71.145C71.7271 70.928 71.6661 70.783 71.5485 70.7132C71.4775 70.6745 71.3532 70.6512 71.1778 70.6512H70.9148V71.3941H70.583V69.5098H71.2433ZM70.229 69.4135C69.9416 69.7013 69.7995 70.049 69.7995 70.4586C69.7995 70.8694 69.9416 71.2225 70.2279 71.5115C70.5153 71.8016 70.8649 71.9477 71.2766 71.9477C71.6872 71.9477 72.0379 71.8016 72.3264 71.5115C72.6116 71.2225 72.7559 70.8694 72.7559 70.4586C72.7559 70.049 72.6116 69.7013 72.3264 69.4135C72.0345 69.1223 71.685 68.9784 71.2766 68.9784C70.8682 68.9784 70.5186 69.1223 70.229 69.4135ZM72.4951 71.6754C72.1599 72.0119 71.7538 72.1802 71.2766 72.1802C70.7994 72.1802 70.3932 72.0119 70.0592 71.6754C69.7263 71.3399 69.5587 70.9336 69.5587 70.4564C69.5587 69.9836 69.7285 69.5795 70.0625 69.2441C70.3977 68.9097 70.8038 68.7425 71.2766 68.7425C71.7538 68.7425 72.1599 68.9097 72.4951 69.2441C72.8324 69.5773 73 69.9825 73 70.4564C73 70.9325 72.8324 71.3388 72.4951 71.6754Z" fill="#0982C6"/>
</g>
</g>
<defs>
<clipPath id="clip0_1873_12696">
<rect width="73" height="78" fill="white"/>
</clipPath>
</defs>
</svg>
