<svg width="186" height="36" viewBox="0 0 186 36" fill="none" xmlns="http://www.w3.org/2000/svg">
<g clip-path="url(#clip0_1873_12714)">
<path d="M84.56 23.6C93.23 23.6 97.68 20.88 97.68 15.03C97.68 9.98 94.01 6.62 86.04 6.62C76.38 6.62 72.52 10.93 71.64 18.65C70.23 18.56 68.69 18.53 66.59 18.52C66.59 18.1 66.6 17.68 66.6 17.25C66.6 9.42 63.36 6.59 54.72 6.59C50.5 6.59 46.78 7.22 44.51 8.14L44.85 14.39C46.83 13.34 49.78 12.33 52.58 12.33C56.53 12.33 57.73 13.96 57.73 17.87L57.72 18.45C57.45 18.44 56.75 18.44 56.37 18.44C46.53 18.44 41.97 21.42 41.97 26.94C41.97 32.63 44.8 35.98 52.87 35.98C57.12 35.98 61.32 35.38 66.73 35.38C66.33 33.1 66.32 29.82 66.32 27.57C66.32 26.38 66.38 24.96 66.44 23.35C68.75 23.37 70.45 23.43 71.57 23.48C72.41 32.62 77.15 36 87.02 36C90.67 36 94.36 35.38 96.29 34.48L95.95 28.23C94.03 29.34 91.36 30.25 88.43 30.25C83.58 30.25 80.95 27.72 80.95 23.72V23.53C81.82 23.57 83.55 23.6 84.56 23.6ZM54.97 30.52C51.97 30.52 50.69 29.52 50.69 27.01C50.69 24.59 52.32 23.22 56.42 23.22C56.8 23.22 57.26 23.21 57.59 23.24C57.57 25.58 57.52 28.31 57.65 30.21C56.94 30.4 55.89 30.52 54.97 30.52ZM80.91 18.77V18.63C80.91 14.71 82.15 11.83 85.75 11.83C87.79 11.83 89.1 12.9 89.1 14.84C89.1 17.57 87.28 18.84 83.5 18.84C82.59 18.84 81.62 18.83 80.91 18.77ZM115.41 29.74C112.51 29.74 111.66 28.59 111.66 24.38V13.51H117.38V7.47H111.75C111.75 5.33 111.92 2.17 112.1 0H106.8C106.1 5.28 104.57 8 99.75 8.8C99.73 10.22 99.81 12.16 99.75 13.51H102.96C102.91 16.51 102.82 21.99 102.82 26.98C102.82 33.35 106.12 35.96 112.32 35.96C115.34 35.96 117.56 35.52 118.3 35.31L117.92 29.1C117.38 29.47 116.31 29.74 115.41 29.74ZM175.75 17.25C175.75 9.42 172.51 6.59 163.88 6.59C159.65 6.59 155.94 7.22 153.67 8.14L154.01 14.39C155.99 13.34 158.93 12.33 161.74 12.33C165.69 12.33 166.89 13.96 166.89 17.87V18.45C166.61 18.44 165.92 18.44 165.54 18.44C155.69 18.44 151.14 21.42 151.14 26.94C151.14 32.63 153.97 35.98 162.04 35.98C166.29 35.98 170.49 35.38 175.89 35.38C175.5 33.1 175.49 29.82 175.49 27.57C175.48 25.02 175.75 21.44 175.75 17.25ZM164.13 30.52C161.12 30.52 159.85 29.52 159.85 27.01C159.85 24.59 161.48 23.22 165.58 23.22C165.95 23.22 166.41 23.21 166.74 23.24C166.73 25.58 166.67 28.31 166.81 30.21C166.1 30.4 165.04 30.52 164.13 30.52ZM147.53 22.36C147.53 20 147.58 16.86 147.58 16.86C147.58 9.79 144.48 6.62 135.71 6.62C130.79 6.62 127.28 7.48 121.79 7.48C122.1 12.44 122.11 18.57 122.09 22.37C122.11 26.23 121.96 33.15 121.79 35.38H131.21C130.99 33.14 130.81 26.71 130.83 22.37C130.83 19.9 130.86 16.91 130.96 12.9C131.9 12.58 133.09 12.34 134.38 12.34C137.68 12.34 138.74 13.89 138.74 18.14C138.74 18.14 138.79 20.81 138.79 22.38C138.79 26.24 138.66 33.16 138.49 35.39H147.91C147.69 33.13 147.5 26.7 147.53 22.36ZM30.85 5.35C29.97 4.47 28.82 4.03 27.68 4.03C26.53 4.03 25.37 4.47 24.49 5.36L19.27 10.59L14.04 5.36C13.15 4.46 12 4.02 10.85 4.02C9.70003 4.02 8.55003 4.46 7.67003 5.34L1.31003 11.7C-0.439968 13.45 -0.439968 16.3 1.32003 18.06L19.26 36L37.2 18.06C38.96 16.31 38.95 13.46 37.2 11.7L30.85 5.35ZM183.23 8.22C183.23 7.27 182.65 6.87 181.52 6.87H179.74V11.55H180.51V9.55H181.23L182.44 11.55H183.31L182 9.49C182.71 9.42 183.23 9.07 183.23 8.22ZM180.51 8.9V7.53H181.44C181.9 7.53 182.46 7.6 182.46 8.16C182.46 8.84 181.95 8.89 181.38 8.89H180.51V8.9ZM181.35 4.91C179.11 4.91 177.19 6.6 177.19 9.14C177.19 11.55 178.92 13.37 181.35 13.37C183.57 13.37 185.49 11.69 185.49 9.14C185.49 6.59 183.57 4.91 181.35 4.91ZM181.35 12.63C179.34 12.63 178.09 11.06 178.09 9.14C178.09 7.08 179.51 5.65 181.35 5.65C183.16 5.65 184.58 7.09 184.58 9.14C184.58 11.21 183.16 12.63 181.35 12.63Z" fill="#7D3F98"/>
</g>
<defs>
<clipPath id="clip0_1873_12714">
<rect width="185.49" height="36" fill="white"/>
</clipPath>
</defs>
</svg>
