<svg width="181" height="44" viewBox="0 0 181 44" fill="none" xmlns="http://www.w3.org/2000/svg">
<g clip-path="url(#clip0_1873_12718)">
<path d="M77.0084 31.7115H84.9792V23.88H77.0084V31.7115Z" fill="#98958C"/>
<path d="M84.9683 25.0539H84.9791V7.42512L91.8154 7.4479L91.8047 1.3162L70.1316 1.2988L70.1327 7.42514H77.0081V31.7126H77.0102C77.3134 30.1572 78.0706 28.7062 79.2185 27.4973C80.7975 25.8122 82.6097 25.054 84.9675 25.054" fill="#084168"/>
<path d="M12.6294 25.9815C3.83136 25.5923 0.48999 20.2376 0.48999 12.8595C0.48999 5.01866 5.19216 -0.298595 12.3222 0.0130036C19.4118 0.323259 23.54 4.34866 24.3255 10.372H16.9543C16.5932 8.23363 14.3311 6.42019 12.3343 6.42019C8.96197 6.42019 8.15627 9.89594 8.15627 13.1042C8.15627 16.3111 9.27725 19.6893 12.5512 19.6893C14.6463 19.6893 16.8061 18.2142 17.0028 15.9327L24.3754 15.9821C24.3754 22.2194 18.6721 26.2503 12.6294 25.9815Z" fill="#084168"/>
<path d="M25.2431 25.2393L25.4695 1.27957H44.7834L44.7322 6.69446H33.0616L33.0872 10.5487L42.9658 10.4991V15.8659L33.0387 15.914L33.0872 19.8658H44.7725V25.4666L25.2431 25.2393Z" fill="#084168"/>
<path d="M61.1016 25.3209L53.667 12.6643L53.6172 25.4452L46.3444 25.3209L46.4912 1.29823L53.6671 1.25009L62.0717 14.1287L61.9235 1.25009L69.3446 1.29823V25.4452L61.1016 25.3209Z" fill="#084168"/>
<path d="M92.661 25.3572L92.8874 1.39612H112.203L112.15 6.811H100.479L100.506 10.6652L110.384 10.6157V15.9824L100.457 16.0305L100.506 19.9824H112.192V25.5832L92.661 25.3572Z" fill="#084168"/>
<path d="M129.129 25.5415L120.549 12.8729L120.44 25.5415H113.406V1.42929H121.24L129.086 14.6823V1.42929H136.286L136.287 25.5415H129.129Z" fill="#084168"/>
<path d="M157.031 25.1504V20.245H145.345L145.297 16.2932L155.224 16.2451V10.8783L145.345 10.9279L145.32 7.07367H156.99L157.041 1.65878H137.727L137.501 25.6185L156.004 25.8325C156.238 25.4634 156.624 25.1972 157.031 25.1504Z" fill="#084168"/>
<path d="M163.974 4.3035C163.974 5.7251 162.814 6.87788 161.38 6.87788C159.948 6.87788 158.786 5.7251 158.786 4.3035C158.786 2.88191 159.948 1.72913 161.38 1.72913C162.814 1.72913 163.974 2.88191 163.974 4.3035Z" stroke="#084168" stroke-width="0.876956"/>
<path d="M160.025 5.93719V2.53366H161.548C161.852 2.53366 162.085 2.5631 162.244 2.62457C162.403 2.68604 162.531 2.79442 162.625 2.94822C162.72 3.10468 162.768 3.27586 162.768 3.46309C162.768 3.70381 162.69 3.90842 162.531 4.07291C162.375 4.24008 162.131 4.3444 161.802 4.38986C161.922 4.44746 162.012 4.50354 162.076 4.55837C162.208 4.68007 162.333 4.82985 162.452 5.01173L163.045 5.93717H162.477L162.025 5.22972C161.891 5.0251 161.782 4.86863 161.697 4.76031C161.611 4.65198 161.534 4.5771 161.467 4.53296C161.399 4.49019 161.329 4.45935 161.259 4.44334C161.208 4.43259 161.125 4.42593 161.007 4.42593H160.481V5.93712L160.025 5.93719ZM160.481 4.03683H161.456C161.663 4.03683 161.825 4.01544 161.944 3.97267C162.06 3.9299 162.149 3.86301 162.209 3.76805C162.27 3.67445 162.301 3.5728 162.301 3.46315C162.301 3.30266 162.241 3.17027 162.124 3.06596C162.006 2.9629 161.82 2.91082 161.565 2.91082H160.481V4.03683Z" fill="#084168"/>
<path d="M76.8618 33.247C76.8618 35.3734 77.6608 37.1427 79.1415 38.3021C80.3312 39.249 81.7149 39.6488 83.7224 39.6488C85.067 39.6488 85.8458 39.5231 86.9762 39.0604L87.3656 37.1012H86.9762C86.5275 38.0908 85.4564 38.6177 83.8585 38.6177C80.7206 38.6177 78.4988 36.3643 78.4988 33.1828C78.4988 32.6786 78.5473 32.1611 78.6349 31.685L77.0248 31.6422C76.9278 32.1451 76.8618 32.7268 76.8618 33.247Z" fill="#98958C"/>
<path d="M78.6349 31.7125H84.9795V26.1077C84.8542 26.098 84.7315 26.085 84.5995 26.085C81.6812 26.085 79.2223 28.5135 78.6349 31.7125Z" fill="#084168"/>
<path d="M98.1159 33.9114C98.1159 37.0488 95.7392 39.7034 92.9328 39.7034C90.5345 39.7034 88.9177 37.9555 88.9177 35.3223C88.9177 32.0578 91.2567 29.5931 94.3757 29.5931C96.518 29.5931 98.1159 31.4253 98.1159 33.9114ZM90.3405 35.5536C90.3405 37.45 91.4116 38.6924 93.05 38.6924C95.1154 38.6924 96.6945 36.5446 96.6945 33.7429C96.6945 31.8265 95.719 30.6041 94.1804 30.6041C91.9964 30.6041 90.3405 32.7318 90.3405 35.5536Z" fill="#98958C"/>
<path d="M106.4 31.636H106.048C105.912 31.0035 105.601 30.7293 105.016 30.7293C104.625 30.7293 104.217 30.8778 103.807 31.1934C103.535 31.3833 103.301 31.636 103.124 31.9102C102.833 32.3515 102.735 32.6257 102.521 33.7423L101.372 39.5558H99.9097L101.47 31.636L101.566 31.2348C101.586 31.1305 101.606 30.9821 101.606 30.8778C101.606 30.4351 101.43 30.288 100.904 30.288H100.767L100.865 29.8667L103.34 29.5926L102.93 31.636C103.554 30.3509 104.607 29.5926 105.757 29.5926C106.128 29.5926 106.478 29.6768 106.886 29.8667L106.4 31.636Z" fill="#98958C"/>
<path d="M108.095 42.5049C108.037 42.8205 107.998 42.989 107.998 43.0732C107.998 43.4316 108.076 43.4945 108.64 43.663L108.564 44H105.601L105.659 43.663C105.854 43.6416 105.932 43.6202 106.068 43.5574C106.38 43.4103 106.478 43.2632 106.575 42.7576L108.758 31.6363L108.836 31.2351C108.875 31.1094 108.875 30.9824 108.875 30.878C108.875 30.4354 108.719 30.2883 108.193 30.2883H108.056L108.134 29.867L110.629 29.5929L110.316 31.1308C110.629 30.751 110.765 30.6253 111.018 30.414C111.68 29.9085 112.655 29.5929 113.493 29.5929C115.462 29.5929 116.885 31.1509 116.885 33.3214C116.885 37.0071 113.902 39.7031 109.771 39.7031C109.322 39.7031 109.148 39.6817 108.661 39.6189L108.095 42.5049ZM109.011 38.6707C109.303 38.6707 109.557 38.6921 109.771 38.6921C113.201 38.6921 115.326 36.6915 115.326 33.4899C115.326 31.6992 114.389 30.6039 112.909 30.6039C111.875 30.6039 110.94 31.1723 110.102 32.2675L108.836 38.6707L109.011 38.6707Z" fill="#98958C"/>
<path d="M127.74 33.9114C127.74 37.0488 125.362 39.7034 122.556 39.7034C120.159 39.7034 118.541 37.9555 118.541 35.3223C118.541 32.0578 120.879 29.5931 123.997 29.5931C126.142 29.5931 127.74 31.4253 127.74 33.9114ZM119.963 35.5536C119.963 37.45 121.036 38.6924 122.673 38.6924C124.738 38.6924 126.316 36.5446 126.316 33.7429C126.316 31.8265 125.342 30.6041 123.802 30.6041C121.619 30.6041 119.963 32.7318 119.963 35.5536Z" fill="#98958C"/>
<path d="M138.415 30.3728C139.506 29.8245 140.578 29.5931 141.845 29.5931C143.852 29.5931 144.963 30.3099 144.963 31.6152C144.963 31.8679 144.924 32.1207 144.866 32.4162L143.949 37.1544C143.873 37.5757 143.832 37.7241 143.832 37.9555C143.832 38.3981 144.086 38.7138 144.456 38.7138C144.748 38.7138 144.963 38.6081 145.489 38.1869L145.821 38.5452C145.08 39.3035 144.398 39.7034 143.774 39.7034C142.858 39.7034 142.331 39.0922 142.294 38.0397C141.338 39.135 140.111 39.7034 138.727 39.7034C137.226 39.7034 136.154 38.7138 136.154 37.3443C136.154 34.7954 138.921 33.0047 143.344 32.7104C143.443 32.2464 143.443 32.1421 143.443 31.9736C143.443 31.1096 142.624 30.5627 141.299 30.5627C140.791 30.5627 140.285 30.6455 139.837 30.8355C139.195 31.0882 138.921 31.3209 138.415 31.9522H138.064L138.415 30.3728ZM141.241 33.9114C138.98 34.4797 137.694 35.6165 137.694 37.0488C137.694 37.8712 138.376 38.5025 139.253 38.5025C140.461 38.5025 141.689 37.8712 142.547 36.8174L143.169 33.5944C142.079 33.7429 141.787 33.7843 141.241 33.9114Z" fill="#98958C"/>
<path d="M136.02 31.636H135.671C135.534 31.0035 135.223 30.7293 134.638 30.7293C134.247 30.7293 133.839 30.8778 133.429 31.1934C133.157 31.3833 132.923 31.636 132.748 31.9102C132.455 32.3515 132.357 32.6257 132.144 33.7423L130.993 39.5558H129.531L131.09 31.636L131.189 31.2348C131.208 31.1305 131.226 30.9821 131.226 30.8778C131.226 30.4351 131.051 30.288 130.526 30.288H130.388L130.487 29.8667L132.962 29.5926L132.552 31.636C133.176 30.3509 134.228 29.5926 135.378 29.5926C135.748 29.5926 136.1 29.6768 136.508 29.8667L136.02 31.636Z" fill="#98958C"/>
<path d="M150.985 29.7392H152.954L152.816 30.4346H150.849L149.62 36.6478C149.523 37.1119 149.484 37.5746 149.484 37.8274C149.484 38.3757 149.855 38.7328 150.438 38.7328C151.18 38.7328 151.667 38.4386 152.017 37.7431H152.33L152.017 39.3439C151.257 39.6181 150.829 39.7023 150.089 39.7023C148.666 39.7023 147.983 39.134 147.983 37.9959C147.983 37.6589 148.022 37.3433 148.14 36.7535L149.387 30.4346H148.237L148.374 29.7392C148.899 29.7392 148.978 29.6978 149.251 29.592C149.581 29.4449 149.816 29.0023 149.972 28.2226L150.244 26.8746L151.628 26.5162L150.985 29.7392Z" fill="#98958C"/>
<path d="M168.564 33.9114C168.564 37.0488 166.186 39.7034 163.38 39.7034C160.983 39.7034 159.365 37.9555 159.365 35.3223C159.365 32.0578 161.703 29.5931 164.821 29.5931C166.965 29.5931 168.564 31.4253 168.564 33.9114ZM160.787 35.5536C160.787 37.45 161.86 38.6924 163.497 38.6924C165.562 38.6924 167.141 36.5446 167.141 33.7429C167.141 31.8265 166.167 30.6041 164.626 30.6041C162.443 30.6041 160.787 32.7318 160.787 35.5536Z" fill="#98958C"/>
<path d="M155.993 36.6478L155.837 37.4061C155.798 37.5532 155.798 37.7017 155.798 37.8274C155.798 38.3757 156.032 38.7127 156.422 38.7127C156.656 38.7127 156.928 38.5857 157.435 38.2072L157.69 38.5228C157.064 39.2396 156.247 39.7023 155.584 39.7023C154.805 39.7023 154.278 39.1126 154.278 38.2072C154.278 37.933 154.298 37.7431 154.473 36.9006L155.507 31.6355L155.584 31.2343C155.624 31.1086 155.624 30.9815 155.624 30.8772C155.624 30.4346 155.466 30.2875 154.941 30.2875H154.805L154.883 29.8662L157.377 29.592L155.993 36.6478ZM158.176 26.7489C158.176 27.5071 157.513 28.2012 156.811 28.2012C156.286 28.2012 155.915 27.8013 155.915 27.2544C155.915 26.4961 156.598 25.8007 157.299 25.8007C157.826 25.8007 158.176 26.2005 158.176 26.7489Z" fill="#98958C"/>
<path d="M173.474 31.0457C174.566 30.0548 175.676 29.592 176.942 29.592C178.54 29.592 179.613 30.5188 179.613 31.8669C179.613 32.141 179.535 32.6465 179.38 33.4048L178.717 36.7963C178.581 37.4489 178.521 37.8702 178.521 38.0587C178.521 38.4171 178.814 38.6913 179.164 38.6913C179.458 38.6913 179.73 38.5643 180.198 38.1858L180.49 38.5643C180.198 38.9026 180.08 39.0069 179.847 39.1754C179.399 39.4924 178.794 39.7023 178.307 39.7023C177.547 39.7023 177.022 39.134 177.022 38.3115C177.022 38.1015 177.08 37.6803 177.158 37.3005L177.956 33.2149C178.054 32.7308 178.093 32.3724 178.093 32.141C178.093 31.2343 177.353 30.5616 176.319 30.5616C175.696 30.5616 174.994 30.8344 174.331 31.3399C173.922 31.6569 173.687 31.8882 173.181 32.4981L171.798 39.5552H170.318L171.895 31.6355L171.972 31.2343C171.992 31.13 172.013 30.9815 172.013 30.8772C172.013 30.4346 171.836 30.2875 171.33 30.2875H171.193L171.272 29.8662L173.766 29.592L173.474 31.0457Z" fill="#98958C"/>
<path d="M87.2577 28.8613L88.9917 27.1562C88.058 25.6838 86.8145 25.0526 84.9296 25.0499V26.1037C86.3173 26.2161 87.2577 26.9302 87.2577 27.9359C87.2577 28.1873 87.1999 28.3357 86.9842 28.5671L87.2577 28.8613Z" fill="#98958C"/>
</g>
<defs>
<clipPath id="clip0_1873_12718">
<rect width="180" height="44" fill="white" transform="translate(0.48999)"/>
</clipPath>
</defs>
</svg>
