<svg width="167" height="50" viewBox="0 0 167 50" fill="none" xmlns="http://www.w3.org/2000/svg">
<path d="M161.945 16.5854C163.124 16.5854 164.077 17.5284 164.077 18.6969C164.077 19.8665 163.124 20.8126 161.945 20.8126C160.764 20.8126 159.811 19.8665 159.811 18.6969C159.811 17.5284 160.764 16.5854 161.945 16.5854ZM161.945 16.8288C160.903 16.8288 160.055 17.6654 160.055 18.6969C160.055 19.7316 160.903 20.5703 161.945 20.5703C162.987 20.5703 163.832 19.7316 163.832 18.6969C163.832 17.6654 162.987 16.8288 161.945 16.8288ZM162.992 19.8664C162.885 19.8612 162.78 19.8496 162.67 19.8496C162.565 19.8496 162.456 19.8612 162.347 19.8664C161.737 18.758 161.728 18.7527 161.698 18.7527C161.676 18.7527 161.676 18.7633 161.676 18.8465C161.676 19.1889 161.695 19.7421 161.711 19.8612C161.622 19.8559 161.527 19.8433 161.431 19.8433C161.343 19.8433 161.247 19.8559 161.152 19.8612C161.152 19.7779 161.186 19.4313 161.186 18.5452C161.186 17.8245 161.169 17.5885 161.152 17.441C161.307 17.4473 161.468 17.4536 161.616 17.4536C161.722 17.4536 161.878 17.441 162.11 17.441C162.539 17.441 162.808 17.6907 162.808 18.0363C162.808 18.3745 162.546 18.6232 162.23 18.6685L162.992 19.8664ZM161.878 17.6306H161.695C161.68 18.0563 161.68 18.3207 161.68 18.6021C161.842 18.6021 162.248 18.6021 162.248 18.0785C162.248 17.7782 162.057 17.6306 161.878 17.6306Z" fill="#2B2E34"/>
<path d="M63.7982 22.6248C63.2558 26.4875 63.025 30.3744 62.7666 34.237C62.354 34.1601 61.9392 34.1085 61.5532 34.1085C61.1406 34.1085 60.7535 34.1601 60.3387 34.237C61.4224 28.3546 62.2753 22.471 62.9995 16.5896C63.36 16.6655 63.695 16.716 64.0555 16.716C64.3937 16.716 64.7542 16.6655 65.0903 16.5896C66.9726 20.6545 69.1686 25.2083 71.0531 28.815C73.0928 25.0039 75.2101 20.6545 77.068 16.5896C77.4296 16.6655 77.8167 16.716 78.1782 16.716C78.5398 16.716 78.9003 16.6655 79.263 16.5896C79.9351 22.471 80.8358 30.6304 81.4824 34.237C80.7859 34.1601 80.0893 34.1085 79.3917 34.1085C78.6951 34.1085 77.9719 34.1601 77.2477 34.237C77.068 30.6821 76.6299 26.3326 76.2172 22.3699H76.1651C74.2275 26.3326 72.3175 30.2722 70.4586 34.237C70.3055 34.2118 70.1236 34.1854 69.9694 34.1854C69.8131 34.1854 69.6334 34.2118 69.4781 34.237C67.6447 30.3744 65.7868 26.4875 63.8513 22.6248" fill="#2B2E34"/>
<path d="M93.2028 16.2555C98.6753 16.2555 102.986 19.2226 102.986 25.3864C102.986 30.4512 98.8816 34.5699 93.1241 34.5699C87.6781 34.5699 83.2881 31.8062 83.2881 25.4138C83.2881 20.3732 87.2112 16.2555 93.2028 16.2555ZM93.1241 17.7148C89.5881 17.7148 87.5228 21.2445 87.5228 25.6435C87.5228 31.0908 90.0517 32.9821 92.9433 32.9821C96.0411 32.9821 98.7519 30.4259 98.7519 24.85C98.7519 20.4248 96.4559 17.7148 93.1241 17.7148Z" fill="#2B2E34"/>
<path d="M106.187 23.6743C106.187 20.8084 106.134 18.8402 105.98 16.5886C106.547 16.6402 107.245 16.7161 108.097 16.7161C108.948 16.7161 109.646 16.6402 110.214 16.5886C110.06 18.8402 110.008 20.8084 110.008 23.6743V27.1534C110.008 29.0447 110.032 30.9886 110.06 32.3183C111.995 32.3183 113.982 32.2161 115.969 31.9864C115.918 32.3447 115.866 32.6007 115.866 33.1381C115.866 33.6754 115.918 33.9304 115.969 34.2349C115.04 34.2118 113.829 34.1085 111.453 34.1085C107.245 34.1085 106.547 34.1865 105.98 34.2349C106.134 31.9865 106.187 30.0162 106.187 27.1534" fill="#2B2E34"/>
<path d="M119.197 23.6743C119.197 20.8084 119.145 18.8402 118.991 16.5886C119.557 16.6402 120.255 16.7161 121.108 16.7161C121.959 16.7161 122.657 16.6402 123.223 16.5886C123.069 18.8402 123.017 20.8084 123.017 23.6743V27.1534C123.017 30.0162 123.069 31.9865 123.223 34.2349C122.657 34.1865 121.959 34.1085 121.108 34.1085C120.255 34.1085 119.557 34.1865 118.991 34.2349C119.145 31.9865 119.197 30.0162 119.197 27.1534" fill="#2B2E34"/>
<path d="M127.794 16.5886C128.181 16.6666 128.567 16.7171 128.955 16.7171C129.342 16.7171 129.73 16.6666 130.115 16.5886C133.833 20.6546 137.525 24.6963 141.321 28.7655C141.321 24.6963 141.321 17.7402 141.139 16.5886C141.526 16.6666 141.914 16.7171 142.299 16.7171C142.689 16.7171 143.076 16.6666 143.463 16.5886C143.049 24.0315 143.049 27.4337 143.049 34.236C142.689 34.1601 142.352 34.1085 141.991 34.1085C141.629 34.1085 141.294 34.1601 140.986 34.236C137.448 30.0941 133.68 25.9502 129.703 21.8062C129.653 23.7249 129.653 25.848 129.653 27.7656C129.653 31.8569 129.73 33.2909 129.806 34.236C129.393 34.1601 128.981 34.1085 128.594 34.1085C128.207 34.1085 127.794 34.1601 127.405 34.236C127.535 33.4953 127.923 26.8974 127.923 21.6776C127.923 19.3754 127.819 17.8161 127.794 16.5886Z" fill="#2B2E34"/>
<path d="M161.868 34.2359C161.043 34.1854 160.322 34.1095 159.598 34.1095C158.873 34.1095 158.126 34.1854 157.404 34.2359C156.86 32.4974 156.267 30.7336 155.621 28.9951C154.512 28.9677 153.427 28.9425 152.316 28.9425C151.414 28.9425 150.535 28.9677 149.634 28.9951C148.935 30.7336 148.368 32.4721 147.877 34.2359C147.464 34.1854 147.078 34.1095 146.665 34.1095C146.252 34.1095 145.863 34.1854 145.373 34.2359C146.636 31.3985 150.51 22.2929 152.73 16.461C153.066 16.5127 153.375 16.5896 153.71 16.5896C154.046 16.5896 154.357 16.5127 154.693 16.461C156.885 22.2929 159.908 30.0688 161.868 34.2359ZM155.028 27.4842C154.279 25.4138 153.558 23.3918 152.73 21.3984C151.851 23.3918 151.052 25.4138 150.305 27.4842" fill="#2B2E34"/>
<path d="M67.4533 43.1108C66.6684 43.095 65.9006 43.0508 65.1147 43.0508C64.3437 43.0508 63.5589 43.0824 62.7762 43.1108V43.979C62.7762 45.687 62.8059 46.8597 62.8974 48.2041C62.5592 48.1736 62.1434 48.1282 61.6361 48.1282C61.1289 48.1282 60.7141 48.1736 60.3749 48.2041C60.4674 46.8597 60.4972 45.687 60.4972 43.979V41.9065C60.4972 40.1986 60.4674 39.0248 60.3749 37.6824C60.7141 37.713 61.1289 37.7583 61.6361 37.7583C62.1434 37.7583 62.5592 37.713 62.8974 37.6824C62.8059 39.01 62.7762 40.1827 62.7762 41.877C63.2983 41.8907 64.0374 41.9065 65.1307 41.9065C66.2218 41.9065 66.8684 41.8907 67.4533 41.877C67.4533 40.1827 67.4224 39.01 67.3288 37.6824C67.6691 37.713 68.0839 37.7583 68.5922 37.7583C69.0995 37.7583 69.5164 37.713 69.8535 37.6824C69.762 39.0248 69.7301 40.1986 69.7301 41.9065V43.979C69.7301 45.687 69.762 46.8597 69.8535 48.2041C69.5164 48.1736 69.0995 48.1282 68.5922 48.1282C68.0839 48.1282 67.6691 48.1736 67.3288 48.2041C67.4224 46.8597 67.4533 45.687 67.4533 43.979" fill="#2B2E34"/>
<path d="M73.3789 41.9065C73.3789 40.1986 73.3491 39.0248 73.2545 37.6824C74.1637 37.6982 75.0868 37.7604 75.996 37.7604C77.504 37.7604 78.7961 37.7288 79.2119 37.6824C79.18 37.8658 79.1492 38.0481 79.1492 38.3231C79.1492 38.6413 79.18 38.7803 79.2119 39.01C78.0421 38.9331 76.196 38.8257 75.7334 38.8257C75.6557 39.9372 75.6557 41.0383 75.6557 42.1499C76.9957 42.1193 77.9794 42.0877 79.1492 42.0298C79.0875 42.3785 79.0737 42.5176 79.0737 42.7136C79.0737 42.8822 79.1035 43.0191 79.1492 43.3394C77.9794 43.2478 76.8266 43.2025 75.6557 43.2025C75.6557 43.842 75.6408 44.4995 75.6408 45.1528C75.6408 45.7944 75.6557 46.4487 75.6876 47.0609C76.8415 47.0609 78.0251 46.9987 79.2119 46.8597C79.18 47.0746 79.1492 47.2274 79.1492 47.5477C79.1492 47.868 79.18 48.0207 79.2119 48.203C78.6579 48.1862 77.9347 48.1282 76.5182 48.1282C74.0106 48.1282 73.5948 48.1735 73.2545 48.203C73.3491 46.8596 73.3789 45.688 73.3789 43.979" fill="#2B2E34"/>
<path d="M90.9387 48.2029C90.4452 48.1734 90.0156 48.1271 89.5827 48.1271C89.1531 48.1271 88.7075 48.1734 88.2758 48.2029C87.9525 47.1662 87.5994 46.1136 87.2134 45.0768C86.5508 45.0631 85.9053 45.0473 85.2438 45.0473C84.7047 45.0473 84.1815 45.0631 83.6433 45.0768C83.2265 46.1136 82.8915 47.1525 82.5969 48.2029C82.3512 48.1734 82.1205 48.1271 81.8748 48.1271C81.6281 48.1271 81.3973 48.1734 81.1049 48.2029C81.8599 46.5108 84.1666 41.0825 85.4895 37.6076C85.6916 37.6371 85.8766 37.6835 86.0744 37.6835C86.2754 37.6835 86.4594 37.6371 86.6593 37.6076C87.9663 41.0825 89.7689 45.7174 90.9387 48.2029ZM86.8603 44.1781C86.4136 42.9422 85.9829 41.7399 85.4895 40.5493C84.9673 41.7399 84.4909 42.9422 84.0443 44.1781" fill="#2B2E34"/>
<path d="M93.5697 41.9065C93.5697 40.1986 93.5399 39.0248 93.4453 37.6824C93.7845 37.713 94.2003 37.7604 94.7086 37.7604C95.2159 37.7604 95.6328 37.713 95.9699 37.6824C95.8774 39.0248 95.8455 40.1986 95.8455 41.9065V43.979C95.8455 45.1085 95.8614 46.2664 95.8774 47.0609C97.0323 47.0609 98.217 46.9987 99.4017 46.8597C99.3698 47.0746 99.3389 47.2274 99.3389 47.5477C99.3389 47.868 99.3698 48.0207 99.4017 48.203C98.8487 48.1862 98.1245 48.1282 96.709 48.1282C94.2003 48.1282 93.7845 48.1735 93.4453 48.203C93.5399 46.8596 93.5697 45.688 93.5697 43.979" fill="#2B2E34"/>
<path d="M102.989 40.168C102.989 39.5885 102.989 39.0395 102.941 38.8267C102.341 38.8267 101.05 38.9183 100.126 39.0248C100.172 38.7961 100.203 38.5833 100.203 38.3547C100.203 38.125 100.172 37.9121 100.126 37.6824C101.527 37.7288 102.22 37.7593 104.128 37.7593C106.035 37.7593 106.729 37.7288 108.036 37.6824C107.99 37.9121 107.958 38.125 107.958 38.3547C107.958 38.5833 107.99 38.7961 108.036 39.0248C107.205 38.9183 105.912 38.8267 105.296 38.8267C105.266 39.0395 105.266 39.5885 105.266 40.168V43.9811C105.266 45.687 105.296 46.8607 105.389 48.203C105.051 48.1725 104.635 48.1272 104.128 48.1272C103.619 48.1272 103.205 48.1725 102.866 48.203C102.958 46.8607 102.989 45.687 102.989 43.9811" fill="#2B2E34"/>
<path d="M117.731 43.1108C116.947 43.095 116.178 43.0508 115.392 43.0508C114.621 43.0508 113.837 43.0824 113.054 43.1108V43.979C113.054 45.687 113.084 46.8597 113.174 48.2041C112.836 48.1736 112.421 48.1282 111.914 48.1282C111.406 48.1282 110.991 48.1736 110.652 48.2041C110.744 46.8597 110.776 45.687 110.776 43.979V41.9065C110.776 40.1986 110.744 39.0248 110.652 37.6824C110.991 37.713 111.406 37.7583 111.914 37.7583C112.421 37.7583 112.836 37.713 113.174 37.6824C113.084 39.01 113.054 40.1827 113.054 41.877C113.575 41.8907 114.317 41.9065 115.408 41.9065C116.5 41.9065 117.145 41.8907 117.731 41.877C117.731 40.1827 117.701 39.01 117.606 37.6824C117.946 37.713 118.363 37.7583 118.87 37.7583C119.379 37.7583 119.793 37.713 120.132 37.6824C120.04 39.0248 120.008 40.1986 120.008 41.9065V43.979C120.008 45.687 120.04 46.8597 120.132 48.2041C119.793 48.1736 119.379 48.1282 118.87 48.1282C118.363 48.1282 117.946 48.1736 117.606 48.2041C117.701 46.8597 117.731 45.687 117.731 43.979" fill="#2B2E34"/>
<path d="M132.12 46.435C131.951 46.8596 131.829 47.3032 131.782 47.7309C130.967 48.1556 129.905 48.4011 128.642 48.4011C125.074 48.4011 122.964 46.1905 122.964 43.3078C122.964 39.1016 125.841 37.4854 129.072 37.4854C130.15 37.4854 131.504 37.8057 132.213 38.2313C132.013 38.735 131.905 39.2692 131.858 39.7876H131.644C130.876 38.8424 130.089 38.4305 128.998 38.4305C127.35 38.4305 125.489 39.8476 125.489 43.0802C125.489 46.2211 127.365 47.456 129.135 47.456C130.12 47.456 131.259 46.9987 131.92 46.3107" fill="#2B2E34"/>
<path d="M143.416 48.2029C142.924 48.1734 142.493 48.1271 142.062 48.1271C141.632 48.1271 141.185 48.1734 140.753 48.2029C140.43 47.1662 140.077 46.1136 139.692 45.0768C139.03 45.0631 138.384 45.0473 137.722 45.0473C137.183 45.0473 136.66 45.0631 136.122 45.0768C135.707 46.1136 135.367 47.1525 135.074 48.2029C134.83 48.1734 134.598 48.1271 134.353 48.1271C134.105 48.1271 133.875 48.1734 133.582 48.2029C134.337 46.5108 136.645 41.0825 137.968 37.6076C138.169 37.6371 138.352 37.6835 138.553 37.6835C138.754 37.6835 138.937 37.6371 139.139 37.6076C140.447 41.0825 142.246 45.7174 143.416 48.2029ZM139.338 44.1781C138.891 42.9422 138.46 41.7399 137.968 40.5493C137.446 41.7399 136.969 42.9422 136.523 44.1781" fill="#2B2E34"/>
<path d="M148.466 43.3542H148.327V43.98C148.327 45.688 148.358 46.8617 148.449 48.203C148.111 48.1735 147.695 48.1272 147.189 48.1272C146.68 48.1272 146.265 48.1735 145.926 48.203C146.018 46.8617 146.048 45.688 146.048 43.98V41.9065C146.048 40.1986 146.018 39.0259 145.926 37.6835C146.265 37.713 146.68 37.7583 147.189 37.7583C147.742 37.7583 148.404 37.6835 149.449 37.6835C151.005 37.6835 151.573 37.8205 152.112 38.2008C152.729 38.6434 153.113 39.3135 153.113 40.2144C153.113 41.6937 152.25 42.6388 150.727 43.0191C151.711 44.7429 152.883 46.4793 154.006 48.203C153.543 48.1735 153.082 48.1272 152.62 48.1272C152.158 48.1272 151.681 48.1735 151.22 48.203L148.466 43.3542ZM148.372 38.5517C148.341 39.9383 148.327 41.3112 148.327 42.6999C148.449 42.7147 148.557 42.7294 148.664 42.7294C150.019 42.7294 150.757 41.9813 150.757 40.5504C150.757 38.7498 150.051 38.5517 148.372 38.5517Z" fill="#2B2E34"/>
<path d="M156.359 41.9065C156.359 40.1986 156.329 39.0248 156.237 37.6824C157.144 37.6982 158.067 37.7604 158.977 37.7604C160.484 37.7604 161.776 37.7288 162.191 37.6824C162.16 37.8658 162.13 38.0481 162.13 38.3231C162.13 38.6413 162.16 38.7803 162.191 39.01C161.023 38.9331 159.174 38.8257 158.713 38.8257C158.636 39.9372 158.636 41.0383 158.636 42.1499C159.975 42.1193 160.961 42.0877 162.13 42.0298C162.068 42.3785 162.053 42.5176 162.053 42.7136C162.053 42.8822 162.084 43.0191 162.13 43.3394C160.961 43.2478 159.807 43.2025 158.636 43.2025C158.636 43.842 158.621 44.4995 158.621 45.1528C158.621 45.7944 158.636 46.4487 158.667 47.0609C159.821 47.0609 161.006 46.9987 162.191 46.8597C162.16 47.0746 162.13 47.2274 162.13 47.5477C162.13 47.868 162.16 48.0207 162.191 48.203C161.637 48.1862 160.914 48.1282 159.499 48.1282C156.99 48.1282 156.575 48.1735 156.237 48.203C156.329 46.8596 156.359 45.688 156.359 43.979" fill="#2B2E34"/>
<path d="M56.3901 48.1724H39.9682C39.9682 48.1724 39.9959 24.9482 39.9682 22.6196C39.914 18.1448 34.3478 16.5938 34.3478 16.5938H45.3631C48.6896 16.5938 56.3752 17.9646 56.3752 24.0515C56.3752 26.5623 56.3901 48.1724 56.3901 48.1724Z" fill="#009FAB"/>
<path d="M42.4269 14.6614C45.8715 14.6614 48.663 11.7534 48.663 8.16785C48.663 4.5802 45.8715 1.67636 42.4269 1.67636C38.9781 1.67636 36.1876 4.5802 36.1876 8.16785C36.1876 11.7534 38.9781 14.6614 42.4269 14.6614Z" fill="#009FAB"/>
<path d="M38.0359 48.1682H21.6384C21.6384 48.1682 21.6693 24.9491 21.6384 22.6248C21.5799 18.1479 16.0244 16.597 16.0244 16.597H27.0216C30.346 16.597 38.022 17.9678 38.022 24.0547C38.022 26.5644 38.0359 48.1682 38.0359 48.1682Z" fill="#009FAB"/>
<path d="M24.2449 14.6403C27.6884 14.6403 30.4842 11.7323 30.4842 8.14673C30.4842 4.55909 27.6884 1.65524 24.2449 1.65524C20.8004 1.65524 18.0046 4.55909 18.0046 8.14673C18.0046 11.7323 20.8004 14.6403 24.2449 14.6403Z" fill="#009FAB"/>
<path d="M19.7274 48.1714H5.79504C5.79504 48.1714 5.82057 33.0474 5.79504 31.2994C5.75038 27.9415 1.58588 26.7741 1.58588 26.7741H11.4654C13.9571 26.7741 19.7157 27.8066 19.7157 32.3762C19.7157 34.2559 19.7274 48.1714 19.7274 48.1714Z" fill="#009FAB"/>
<path d="M8.25482 24.8059C10.8411 24.8059 12.9351 22.626 12.9351 19.9339C12.9351 17.2461 10.8411 15.0681 8.25482 15.0681C5.67274 15.0681 3.5788 17.2461 3.5788 19.9339C3.5788 22.626 5.67274 24.8059 8.25482 24.8059Z" fill="#009FAB"/>
</svg>
