<svg width="140" height="20" viewBox="0 0 140 20" fill="none" xmlns="http://www.w3.org/2000/svg">
<g clip-path="url(#clip0_2365_53765)">
<path d="M10 1.80078C12.6719 1.80078 12.9883 1.8125 14.0391 1.85937C15.0156 1.90234 15.543 2.06641 15.8945 2.20313C16.3594 2.38281 16.6953 2.60156 17.043 2.94922C17.3945 3.30078 17.6094 3.63281 17.7891 4.09766C17.9258 4.44922 18.0898 4.98047 18.1328 5.95312C18.1797 7.00781 18.1914 7.32422 18.1914 9.99219C18.1914 12.6641 18.1797 12.9805 18.1328 14.0313C18.0898 15.0078 17.9258 15.5352 17.7891 15.8867C17.6094 16.3516 17.3906 16.6875 17.043 17.0352C16.6914 17.3867 16.3594 17.6016 15.8945 17.7813C15.543 17.918 15.0117 18.082 14.0391 18.125C12.9844 18.1719 12.668 18.1836 10 18.1836C7.32813 18.1836 7.01172 18.1719 5.96094 18.125C4.98438 18.082 4.45703 17.918 4.10547 17.7813C3.64063 17.6016 3.30469 17.3828 2.95703 17.0352C2.60547 16.6836 2.39063 16.3516 2.21094 15.8867C2.07422 15.5352 1.91016 15.0039 1.86719 14.0313C1.82031 12.9766 1.80859 12.6602 1.80859 9.99219C1.80859 7.32031 1.82031 7.00391 1.86719 5.95312C1.91016 4.97656 2.07422 4.44922 2.21094 4.09766C2.39063 3.63281 2.60938 3.29688 2.95703 2.94922C3.30859 2.59766 3.64063 2.38281 4.10547 2.20313C4.45703 2.06641 4.98828 1.90234 5.96094 1.85937C7.01172 1.8125 7.32813 1.80078 10 1.80078ZM10 0C7.28516 0 6.94531 0.0117187 5.87891 0.0585938C4.81641 0.105469 4.08594 0.277344 3.45313 0.523438C2.79297 0.78125 2.23438 1.12109 1.67969 1.67969C1.12109 2.23438 0.78125 2.79297 0.523438 3.44922C0.277344 4.08594 0.105469 4.8125 0.0585938 5.875C0.0117188 6.94531 0 7.28516 0 10C0 12.7148 0.0117188 13.0547 0.0585938 14.1211C0.105469 15.1836 0.277344 15.9141 0.523438 16.5469C0.78125 17.207 1.12109 17.7656 1.67969 18.3203C2.23438 18.875 2.79297 19.2188 3.44922 19.4727C4.08594 19.7188 4.8125 19.8906 5.875 19.9375C6.94141 19.9844 7.28125 19.9961 9.99609 19.9961C12.7109 19.9961 13.0508 19.9844 14.1172 19.9375C15.1797 19.8906 15.9102 19.7188 16.543 19.4727C17.1992 19.2188 17.7578 18.875 18.3125 18.3203C18.8672 17.7656 19.2109 17.207 19.4648 16.5508C19.7109 15.9141 19.8828 15.1875 19.9297 14.125C19.9766 13.0586 19.9883 12.7188 19.9883 10.0039C19.9883 7.28906 19.9766 6.94922 19.9297 5.88281C19.8828 4.82031 19.7109 4.08984 19.4648 3.45703C19.2188 2.79297 18.8789 2.23438 18.3203 1.67969C17.7656 1.125 17.207 0.78125 16.5508 0.527344C15.9141 0.28125 15.1875 0.109375 14.125 0.0625C13.0547 0.0117188 12.7148 0 10 0Z" fill="#DB2777"/>
<path d="M10 4.86328C7.16406 4.86328 4.86328 7.16406 4.86328 10C4.86328 12.8359 7.16406 15.1367 10 15.1367C12.8359 15.1367 15.1367 12.8359 15.1367 10C15.1367 7.16406 12.8359 4.86328 10 4.86328ZM10 13.332C8.16016 13.332 6.66797 11.8398 6.66797 10C6.66797 8.16016 8.16016 6.66797 10 6.66797C11.8398 6.66797 13.332 8.16016 13.332 10C13.332 11.8398 11.8398 13.332 10 13.332Z" fill="#DB2777"/>
<path d="M16.5391 4.66016C16.5391 5.32422 16 5.85938 15.3398 5.85938C14.6758 5.85938 14.1406 5.32032 14.1406 4.66016C14.1406 3.99609 14.6797 3.46094 15.3398 3.46094C16 3.46094 16.5391 4 16.5391 4.66016Z" fill="#DB2777"/>
</g>
<g clip-path="url(#clip1_2365_53765)">
<path d="M80 10C80 4.47715 75.5229 0 70 0C64.4771 0 60 4.47715 60 10C60 14.9912 63.6568 19.1283 68.4375 19.8785V12.8906H65.8984V10H68.4375V7.79688C68.4375 5.29063 69.9305 3.90625 72.2146 3.90625C73.3084 3.90625 74.4531 4.10156 74.4531 4.10156V6.5625H73.1922C71.95 6.5625 71.5625 7.3334 71.5625 8.125V10H74.3359L73.8926 12.8906H71.5625V19.8785C76.3432 19.1283 80 14.9912 80 10Z" fill="#1877F2"/>
<path d="M73.8926 12.8906L74.3359 10H71.5625V8.125C71.5625 7.33418 71.95 6.5625 73.1922 6.5625H74.4531V4.10156C74.4531 4.10156 73.3088 3.90625 72.2146 3.90625C69.9305 3.90625 68.4375 5.29063 68.4375 7.79688V10H65.8984V12.8906H68.4375V19.8785C69.4729 20.0405 70.5271 20.0405 71.5625 19.8785V12.8906H73.8926Z" fill="white"/>
</g>
<g clip-path="url(#clip2_2365_53765)">
<path d="M138.524 0H121.476C121.085 0 120.709 0.155548 120.432 0.432425C120.156 0.709301 120 1.08483 120 1.47639V18.5236C120 18.9152 120.156 19.2907 120.432 19.5676C120.709 19.8445 121.085 20 121.476 20H138.524C138.915 20 139.291 19.8445 139.568 19.5676C139.844 19.2907 140 18.9152 140 18.5236V1.47639C140 1.08483 139.844 0.709301 139.568 0.432425C139.291 0.155548 138.915 0 138.524 0ZM125.961 17.0375H122.954V7.48611H125.961V17.0375ZM124.456 6.1625C124.114 6.16058 123.782 6.05766 123.499 5.86674C123.216 5.67582 122.997 5.40544 122.867 5.08974C122.738 4.77404 122.706 4.42716 122.773 4.09288C122.841 3.7586 123.007 3.4519 123.248 3.21148C123.49 2.97107 123.798 2.80772 124.133 2.74205C124.468 2.67638 124.814 2.71133 125.129 2.84249C125.444 2.97365 125.713 3.19514 125.902 3.47901C126.091 3.76288 126.192 4.09641 126.192 4.4375C126.195 4.66586 126.152 4.89253 126.066 5.104C125.98 5.31547 125.852 5.50742 125.69 5.66839C125.528 5.82936 125.335 5.95607 125.123 6.04096C124.911 6.12585 124.684 6.16718 124.456 6.1625ZM137.044 17.0458H134.039V11.8278C134.039 10.2889 133.385 9.81389 132.54 9.81389C131.649 9.81389 130.774 10.4861 130.774 11.8667V17.0458H127.767V7.49306H130.658V8.81667H130.697C130.988 8.22917 132.004 7.225 133.556 7.225C135.233 7.225 137.046 8.22083 137.046 11.1375L137.044 17.0458Z" fill="#0A66C2"/>
</g>
<defs>
<clipPath id="clip0_2365_53765">
<rect width="20" height="20" fill="white"/>
</clipPath>
<clipPath id="clip1_2365_53765">
<rect width="20" height="20" fill="white" transform="translate(60)"/>
</clipPath>
<clipPath id="clip2_2365_53765">
<rect width="20" height="20" fill="white" transform="translate(120)"/>
</clipPath>
</defs>
</svg>
